%TF.GenerationSoftware,KiCad,Pcbnew,(5.99.0-11336-g5116fa6d12)*%
%TF.CreationDate,2021-07-16T22:42:55+02:00*%
%TF.ProjectId,DCPowerFire,4443506f-7765-4724-9669-72652e6b6963,rev?*%
%TF.SameCoordinates,Original*%
%TF.FileFunction,Paste,Top*%
%TF.FilePolarity,Positive*%
%FSLAX46Y46*%
G04 Gerber Fmt 4.6, Leading zero omitted, Abs format (unit mm)*
G04 Created by KiCad (PCBNEW (5.99.0-11336-g5116fa6d12)) date 2021-07-16 22:42:55*
%MOMM*%
%LPD*%
G01*
G04 APERTURE LIST*
G04 Aperture macros list*
%AMRoundRect*
0 Rectangle with rounded corners*
0 $1 Rounding radius*
0 $2 $3 $4 $5 $6 $7 $8 $9 X,Y pos of 4 corners*
0 Add a 4 corners polygon primitive as box body*
4,1,4,$2,$3,$4,$5,$6,$7,$8,$9,$2,$3,0*
0 Add four circle primitives for the rounded corners*
1,1,$1+$1,$2,$3*
1,1,$1+$1,$4,$5*
1,1,$1+$1,$6,$7*
1,1,$1+$1,$8,$9*
0 Add four rect primitives between the rounded corners*
20,1,$1+$1,$2,$3,$4,$5,0*
20,1,$1+$1,$4,$5,$6,$7,0*
20,1,$1+$1,$6,$7,$8,$9,0*
20,1,$1+$1,$8,$9,$2,$3,0*%
G04 Aperture macros list end*
%ADD10R,3.050000X2.750000*%
%ADD11R,2.200000X1.200000*%
%ADD12RoundRect,0.140000X0.170000X-0.140000X0.170000X0.140000X-0.170000X0.140000X-0.170000X-0.140000X0*%
%ADD13RoundRect,0.140000X0.140000X0.170000X-0.140000X0.170000X-0.140000X-0.170000X0.140000X-0.170000X0*%
%ADD14RoundRect,0.140000X-0.170000X0.140000X-0.170000X-0.140000X0.170000X-0.140000X0.170000X0.140000X0*%
%ADD15RoundRect,0.135000X0.135000X0.185000X-0.135000X0.185000X-0.135000X-0.185000X0.135000X-0.185000X0*%
%ADD16RoundRect,0.135000X-0.185000X0.135000X-0.185000X-0.135000X0.185000X-0.135000X0.185000X0.135000X0*%
%ADD17R,1.220000X0.650000*%
%ADD18R,1.060000X0.650000*%
%ADD19R,1.400000X0.400000*%
%ADD20R,1.900000X1.750000*%
%ADD21R,1.450000X1.150000*%
%ADD22RoundRect,0.140000X-0.140000X-0.170000X0.140000X-0.170000X0.140000X0.170000X-0.140000X0.170000X0*%
%ADD23RoundRect,0.062500X-0.375000X-0.062500X0.375000X-0.062500X0.375000X0.062500X-0.375000X0.062500X0*%
%ADD24RoundRect,0.062500X-0.062500X-0.375000X0.062500X-0.375000X0.062500X0.375000X-0.062500X0.375000X0*%
%ADD25RoundRect,0.135000X-0.135000X-0.185000X0.135000X-0.185000X0.135000X0.185000X-0.135000X0.185000X0*%
%ADD26RoundRect,0.250000X-0.625000X0.312500X-0.625000X-0.312500X0.625000X-0.312500X0.625000X0.312500X0*%
%ADD27RoundRect,0.218750X-0.218750X-0.256250X0.218750X-0.256250X0.218750X0.256250X-0.218750X0.256250X0*%
%ADD28RoundRect,0.135000X0.185000X-0.135000X0.185000X0.135000X-0.185000X0.135000X-0.185000X-0.135000X0*%
G04 APERTURE END LIST*
D10*
%TO.C,Q2*%
X110061000Y-55016400D03*
X113411000Y-55016400D03*
X110061000Y-58066400D03*
X113411000Y-58066400D03*
D11*
X105436000Y-54261400D03*
X105436000Y-58821400D03*
%TD*%
D12*
%TO.C,C1*%
X85547200Y-53845400D03*
X85547200Y-52885400D03*
%TD*%
D13*
%TO.C,C2*%
X91716800Y-55372000D03*
X90756800Y-55372000D03*
%TD*%
D14*
%TO.C,C4*%
X90398600Y-57127200D03*
X90398600Y-58087200D03*
%TD*%
D15*
%TO.C,R15*%
X114860800Y-52832000D03*
X113840800Y-52832000D03*
%TD*%
D16*
%TO.C,R17*%
X118770400Y-55852600D03*
X118770400Y-56872600D03*
%TD*%
%TO.C,R18*%
X105410000Y-55878000D03*
X105410000Y-56898000D03*
%TD*%
D17*
%TO.C,U1*%
X89524200Y-54823400D03*
X89524200Y-53873400D03*
X89524200Y-52923400D03*
X86904200Y-52923400D03*
X86904200Y-54823400D03*
%TD*%
D18*
%TO.C,U2*%
X86911000Y-57139800D03*
X86911000Y-58089800D03*
X86911000Y-59039800D03*
X89111000Y-59039800D03*
X89111000Y-57139800D03*
%TD*%
D19*
%TO.C,J3*%
X84127000Y-54707000D03*
X84127000Y-55357000D03*
X84127000Y-56007000D03*
X84127000Y-56657000D03*
X84127000Y-57307000D03*
D20*
X81477000Y-57132000D03*
D21*
X83707000Y-58327000D03*
D20*
X81477000Y-54882000D03*
D21*
X83707000Y-53687000D03*
%TD*%
D15*
%TO.C,R12*%
X86895400Y-55940800D03*
X85875400Y-55940800D03*
%TD*%
D22*
%TO.C,C3*%
X88394600Y-55930800D03*
X89354600Y-55930800D03*
%TD*%
D16*
%TO.C,R14*%
X92720000Y-53795200D03*
X92720000Y-54815200D03*
%TD*%
D22*
%TO.C,C6*%
X101094600Y-59512200D03*
X102054600Y-59512200D03*
%TD*%
D14*
%TO.C,C7*%
X92710000Y-57277000D03*
X92710000Y-58237000D03*
%TD*%
D23*
%TO.C,U3*%
X93793700Y-53280000D03*
X93793700Y-53780000D03*
X93793700Y-54280000D03*
X93793700Y-54780000D03*
X93793700Y-55280000D03*
X93793700Y-55780000D03*
X93793700Y-56280000D03*
X93793700Y-56780000D03*
X93793700Y-57280000D03*
X93793700Y-57780000D03*
X93793700Y-58280000D03*
X93793700Y-58780000D03*
D24*
X94481200Y-59467500D03*
X94981200Y-59467500D03*
X95481200Y-59467500D03*
X95981200Y-59467500D03*
X96481200Y-59467500D03*
X96981200Y-59467500D03*
X97481200Y-59467500D03*
X97981200Y-59467500D03*
X98481200Y-59467500D03*
X98981200Y-59467500D03*
X99481200Y-59467500D03*
X99981200Y-59467500D03*
D23*
X100668700Y-58780000D03*
X100668700Y-58280000D03*
X100668700Y-57780000D03*
X100668700Y-57280000D03*
X100668700Y-56780000D03*
X100668700Y-56280000D03*
X100668700Y-55780000D03*
X100668700Y-55280000D03*
X100668700Y-54780000D03*
X100668700Y-54280000D03*
X100668700Y-53780000D03*
X100668700Y-53280000D03*
D24*
X99981200Y-52592500D03*
X99481200Y-52592500D03*
X98981200Y-52592500D03*
X98481200Y-52592500D03*
X97981200Y-52592500D03*
X97481200Y-52592500D03*
X96981200Y-52592500D03*
X96481200Y-52592500D03*
X95981200Y-52592500D03*
X95481200Y-52592500D03*
X94981200Y-52592500D03*
X94481200Y-52592500D03*
%TD*%
D25*
%TO.C,R20*%
X90701400Y-56261000D03*
X91721400Y-56261000D03*
%TD*%
D14*
%TO.C,C9*%
X92710000Y-55552400D03*
X92710000Y-56512400D03*
%TD*%
D26*
%TO.C,R3*%
X129438400Y-55077900D03*
X129438400Y-58002900D03*
%TD*%
%TO.C,R5*%
X116205000Y-54813200D03*
X116205000Y-57738200D03*
%TD*%
D10*
%TO.C,Q1*%
X123396000Y-55092600D03*
X126746000Y-55092600D03*
X123396000Y-58142600D03*
X126746000Y-58142600D03*
D11*
X118771000Y-54337600D03*
X118771000Y-58897600D03*
%TD*%
D14*
%TO.C,C5*%
X101854000Y-53291800D03*
X101854000Y-54251800D03*
%TD*%
D15*
%TO.C,R16*%
X112854200Y-52832000D03*
X111834200Y-52832000D03*
%TD*%
D27*
%TO.C,F1*%
X104012900Y-52781200D03*
X105587900Y-52781200D03*
%TD*%
D25*
%TO.C,R13*%
X90777600Y-52933600D03*
X91797600Y-52933600D03*
%TD*%
D13*
%TO.C,C8*%
X93520200Y-52578000D03*
X92560200Y-52578000D03*
%TD*%
D15*
%TO.C,R6*%
X125173200Y-52832000D03*
X124153200Y-52832000D03*
%TD*%
D28*
%TO.C,R7*%
X102158800Y-56771000D03*
X102158800Y-55751000D03*
%TD*%
M02*
