%TF.GenerationSoftware,KiCad,Pcbnew,(5.99.0-11336-g5116fa6d12)*%
%TF.CreationDate,2021-07-16T02:17:39+02:00*%
%TF.ProjectId,DCPowerFire,4443506f-7765-4724-9669-72652e6b6963,rev?*%
%TF.SameCoordinates,Original*%
%TF.FileFunction,Copper,L3,Inr*%
%TF.FilePolarity,Positive*%
%FSLAX46Y46*%
G04 Gerber Fmt 4.6, Leading zero omitted, Abs format (unit mm)*
G04 Created by KiCad (PCBNEW (5.99.0-11336-g5116fa6d12)) date 2021-07-16 02:17:39*
%MOMM*%
%LPD*%
G01*
G04 APERTURE LIST*
%TA.AperFunction,ComponentPad*%
%ADD10O,1.900000X1.050000*%
%TD*%
%TA.AperFunction,ViaPad*%
%ADD11C,0.400000*%
%TD*%
%TA.AperFunction,ViaPad*%
%ADD12C,0.600000*%
%TD*%
%TA.AperFunction,ViaPad*%
%ADD13C,0.800000*%
%TD*%
%TA.AperFunction,Conductor*%
%ADD14C,0.088900*%
%TD*%
G04 APERTURE END LIST*
D10*
%TO.N,GND*%
%TO.C,J3*%
X81477000Y-52432000D03*
X81477000Y-59582000D03*
%TD*%
D11*
%TO.N,GND*%
X102412800Y-54254400D03*
X107073700Y-59334400D03*
D12*
X89789000Y-55575416D03*
D11*
X120967500Y-58775600D03*
X85039200Y-57759600D03*
X120472200Y-58762900D03*
D13*
X83718400Y-59309000D03*
D11*
X85877400Y-55372000D03*
X119964200Y-59232800D03*
X107073700Y-58267600D03*
X120192800Y-57861200D03*
X85013800Y-52882800D03*
X95250000Y-53365400D03*
X105410000Y-57734200D03*
X119964200Y-58750200D03*
X106404830Y-57734200D03*
X120650000Y-57861200D03*
X105901064Y-57734200D03*
X85013800Y-57302400D03*
X118364000Y-57861200D03*
D13*
X83693000Y-52735000D03*
D11*
X106476800Y-59334400D03*
X110947200Y-52552600D03*
X85445600Y-57302400D03*
X102514400Y-59512200D03*
X109042200Y-52552600D03*
X110490000Y-52552600D03*
X120980200Y-59258200D03*
X99568000Y-58826400D03*
X106908600Y-57734200D03*
X94578000Y-56946800D03*
X104389766Y-57734200D03*
X107073700Y-58820050D03*
X118821200Y-57861200D03*
X119735600Y-57861200D03*
X119278400Y-57861200D03*
X106476800Y-58267600D03*
X103911400Y-57734200D03*
X102489000Y-57353200D03*
X119964200Y-58293000D03*
X92760800Y-53060600D03*
X91427300Y-58369200D03*
X106476800Y-58820050D03*
X120459500Y-58293000D03*
X107670600Y-58267600D03*
X120954800Y-58293000D03*
X107670600Y-59334400D03*
X117906802Y-52857400D03*
X109550200Y-52552600D03*
X117906800Y-57861200D03*
X109550200Y-53009800D03*
X104216200Y-55448200D03*
X99999800Y-53797200D03*
D12*
X90347800Y-54102000D03*
D11*
X120472200Y-59232800D03*
X110490000Y-53009800D03*
X104893532Y-57734200D03*
X93014800Y-55168800D03*
D13*
X85953600Y-58089800D03*
D11*
X107670600Y-58820050D03*
X109042200Y-53009800D03*
X110947200Y-53009800D03*
X85445600Y-57759600D03*
X110032800Y-53009800D03*
X110032800Y-52552600D03*
%TO.N,+BATT*%
X90678000Y-53517800D03*
X88392000Y-55473600D03*
X88188800Y-55016400D03*
X107797600Y-52527200D03*
%TO.N,+3V3*%
X126111000Y-52451000D03*
X130708400Y-59182000D03*
X102946200Y-56692800D03*
D12*
X91420730Y-57353200D03*
D11*
X101574600Y-58801000D03*
D12*
X89875400Y-56530200D03*
D11*
X130911600Y-52882800D03*
X94081600Y-52462038D03*
%TO.N,USB_DP*%
X85039200Y-56007000D03*
X99720400Y-54787800D03*
%TO.N,USB_ID*%
X85039200Y-56642000D03*
X94488000Y-58623200D03*
%TO.N,USB_DN*%
X99136200Y-54914800D03*
X85039200Y-55372000D03*
%TO.N,NTC1*%
X97383600Y-54660800D03*
X121462800Y-52857400D03*
%TO.N,SCK*%
X95135553Y-55758992D03*
%TO.N,NRST*%
X92024200Y-56235600D03*
%TO.N,SWD*%
X99415600Y-53876600D03*
%TO.N,Coil_1*%
X118135400Y-55854600D03*
X99936071Y-56792471D03*
%TO.N,R_1*%
X97764600Y-53644800D03*
%TO.N,G_1*%
X97180400Y-53568600D03*
%TO.N,B_1*%
X98437597Y-53596376D03*
%TO.N,R_2*%
X97967800Y-58801000D03*
%TO.N,G_2*%
X98976102Y-58833368D03*
%TO.N,B_2*%
X98501200Y-58267600D03*
%TO.N,Net-(R15-Pad2)*%
X113360196Y-53187604D03*
X96062800Y-54076600D03*
%TO.N,Net-(R15-Pad1)*%
X115239800Y-53263800D03*
%TO.N,Charge*%
X88664740Y-54522545D03*
X95986600Y-53238400D03*
%TO.N,NTC2*%
X102362000Y-55676800D03*
X97993200Y-56311800D03*
%TO.N,WP*%
X99314000Y-57277000D03*
%TO.N,RST*%
X99822000Y-57759598D03*
%TO.N,MOSI*%
X96494600Y-58420000D03*
%TO.N,MISO*%
X96647000Y-56667400D03*
%TO.N,CLK*%
X95529400Y-56896000D03*
%TO.N,CS*%
X96164400Y-55422800D03*
%TO.N,+BATT_FUSED*%
X106019600Y-52806600D03*
X106476800Y-53263800D03*
X105562400Y-52806600D03*
X106934000Y-52806600D03*
X88239600Y-54025800D03*
X106019600Y-53263800D03*
X105562400Y-53263800D03*
X106934000Y-53263800D03*
X88503800Y-53517800D03*
X106476800Y-52806600D03*
%TD*%
D14*
%TO.N,USB_DP*%
X99847400Y-55956050D02*
X99847400Y-54762400D01*
X93929200Y-58025820D02*
X97777631Y-58025819D01*
X92760800Y-56857420D02*
X93929200Y-58025820D01*
X85039200Y-56007000D02*
X85369550Y-56007000D01*
X90564030Y-56857420D02*
X92760800Y-56857420D01*
X85369550Y-56007000D02*
X86880371Y-57517820D01*
X97777631Y-58025819D02*
X99847400Y-55956050D01*
X86880371Y-57517820D02*
X89903629Y-57517820D01*
X89903629Y-57517820D02*
X90564030Y-56857420D01*
%TO.N,USB_ID*%
X94488000Y-58623200D02*
X94222105Y-58357305D01*
X86918800Y-57861200D02*
X85699600Y-56642000D01*
X93956035Y-58357305D02*
X93459930Y-57861200D01*
X93459930Y-57861200D02*
X86918800Y-57861200D01*
X94222105Y-58357305D02*
X93956035Y-58357305D01*
X85699600Y-56642000D02*
X85039200Y-56642000D01*
%TO.N,USB_DN*%
X89814400Y-57302400D02*
X90474800Y-56642000D01*
X99263200Y-55041800D02*
X99136200Y-54914800D01*
X99263200Y-56235600D02*
X99263200Y-55041800D01*
X86969600Y-57302400D02*
X89814400Y-57302400D01*
X97688400Y-57810400D02*
X99263200Y-56235600D01*
X92964000Y-56642000D02*
X94132400Y-57810400D01*
X94132400Y-57810400D02*
X97688400Y-57810400D01*
X85039200Y-55372000D02*
X86969600Y-57302400D01*
X90474800Y-56642000D02*
X92964000Y-56642000D01*
%TD*%
%TA.AperFunction,Conductor*%
%TO.N,GND*%
G36*
X93784890Y-52228306D02*
G01*
X93803196Y-52272500D01*
X93794823Y-52303750D01*
X93772367Y-52342646D01*
X93769103Y-52348299D01*
X93749048Y-52462038D01*
X93769103Y-52575777D01*
X93826850Y-52675798D01*
X93831038Y-52679312D01*
X93907727Y-52743661D01*
X93915324Y-52750036D01*
X93954582Y-52764325D01*
X94018714Y-52787668D01*
X94018717Y-52787668D01*
X94023853Y-52789538D01*
X94139347Y-52789538D01*
X94144483Y-52787668D01*
X94144486Y-52787668D01*
X94208618Y-52764325D01*
X94247876Y-52750036D01*
X94255474Y-52743661D01*
X94332162Y-52679312D01*
X94336350Y-52675798D01*
X94394097Y-52575777D01*
X94414152Y-52462038D01*
X94394097Y-52348299D01*
X94390834Y-52342646D01*
X94368377Y-52303750D01*
X94362134Y-52256323D01*
X94391254Y-52218373D01*
X94422504Y-52210000D01*
X107496854Y-52210000D01*
X107541048Y-52228306D01*
X107559354Y-52272500D01*
X107545157Y-52311504D01*
X107542850Y-52313440D01*
X107485103Y-52413461D01*
X107465048Y-52527200D01*
X107485103Y-52640939D01*
X107487836Y-52645673D01*
X107487837Y-52645675D01*
X107511119Y-52686000D01*
X107542850Y-52740960D01*
X107631324Y-52815198D01*
X107675632Y-52831325D01*
X107734714Y-52852830D01*
X107734717Y-52852830D01*
X107739853Y-52854700D01*
X107855347Y-52854700D01*
X107860483Y-52852830D01*
X107860486Y-52852830D01*
X107919568Y-52831325D01*
X107963876Y-52815198D01*
X108052350Y-52740960D01*
X108084081Y-52686000D01*
X108107363Y-52645675D01*
X108107364Y-52645673D01*
X108110097Y-52640939D01*
X108130152Y-52527200D01*
X108110097Y-52413461D01*
X108052350Y-52313440D01*
X108050120Y-52311569D01*
X108036084Y-52267053D01*
X108058171Y-52224623D01*
X108098346Y-52210000D01*
X125763724Y-52210000D01*
X125807918Y-52228306D01*
X125826224Y-52272500D01*
X125817850Y-52303751D01*
X125798503Y-52337261D01*
X125778448Y-52451000D01*
X125798503Y-52564739D01*
X125801236Y-52569473D01*
X125801237Y-52569475D01*
X125835584Y-52628965D01*
X125856250Y-52664760D01*
X125944724Y-52738998D01*
X125980185Y-52751905D01*
X126048114Y-52776630D01*
X126048117Y-52776630D01*
X126053253Y-52778500D01*
X126168747Y-52778500D01*
X126173883Y-52776630D01*
X126173886Y-52776630D01*
X126241815Y-52751905D01*
X126277276Y-52738998D01*
X126365750Y-52664760D01*
X126386416Y-52628965D01*
X126420763Y-52569475D01*
X126420764Y-52569473D01*
X126423497Y-52564739D01*
X126443552Y-52451000D01*
X126423497Y-52337261D01*
X126404150Y-52303751D01*
X126397905Y-52256324D01*
X126427025Y-52218374D01*
X126458276Y-52210000D01*
X131437500Y-52210000D01*
X131481694Y-52228306D01*
X131500000Y-52272500D01*
X131500000Y-59787500D01*
X131481694Y-59831694D01*
X131437500Y-59850000D01*
X92866119Y-59850000D01*
X92821925Y-59831694D01*
X92803619Y-59787500D01*
X92825528Y-59739975D01*
X92889546Y-59685298D01*
X92892408Y-59682854D01*
X92894603Y-59679799D01*
X92894606Y-59679796D01*
X92978172Y-59563502D01*
X92978173Y-59563500D01*
X92980372Y-59560440D01*
X93036597Y-59420576D01*
X93051541Y-59315569D01*
X93057549Y-59273358D01*
X93057549Y-59273353D01*
X93057836Y-59271339D01*
X93057974Y-59258200D01*
X93057729Y-59256179D01*
X93057729Y-59256171D01*
X93048753Y-59182000D01*
X130375848Y-59182000D01*
X130395903Y-59295739D01*
X130398636Y-59300473D01*
X130398637Y-59300475D01*
X130412427Y-59324359D01*
X130453650Y-59395760D01*
X130542124Y-59469998D01*
X130591123Y-59487833D01*
X130645514Y-59507630D01*
X130645517Y-59507630D01*
X130650653Y-59509500D01*
X130766147Y-59509500D01*
X130771283Y-59507630D01*
X130771286Y-59507630D01*
X130825677Y-59487833D01*
X130874676Y-59469998D01*
X130963150Y-59395760D01*
X131004373Y-59324359D01*
X131018163Y-59300475D01*
X131018164Y-59300473D01*
X131020897Y-59295739D01*
X131040952Y-59182000D01*
X131020897Y-59068261D01*
X130963150Y-58968240D01*
X130874676Y-58894002D01*
X130825677Y-58876167D01*
X130771286Y-58856370D01*
X130771283Y-58856370D01*
X130766147Y-58854500D01*
X130650653Y-58854500D01*
X130645517Y-58856370D01*
X130645514Y-58856370D01*
X130591123Y-58876167D01*
X130542124Y-58894002D01*
X130453650Y-58968240D01*
X130395903Y-59068261D01*
X130375848Y-59182000D01*
X93048753Y-59182000D01*
X93040317Y-59112295D01*
X93039864Y-59108550D01*
X93037457Y-59102178D01*
X92987913Y-58971065D01*
X92986581Y-58967540D01*
X92901200Y-58843310D01*
X92788651Y-58743032D01*
X92781624Y-58739311D01*
X92683317Y-58687261D01*
X92655431Y-58672496D01*
X92509231Y-58635773D01*
X92505466Y-58635753D01*
X92505464Y-58635753D01*
X92431111Y-58635364D01*
X92358491Y-58634984D01*
X92354827Y-58635864D01*
X92354824Y-58635864D01*
X92288706Y-58651738D01*
X92211915Y-58670174D01*
X92208573Y-58671899D01*
X92208570Y-58671900D01*
X92187985Y-58682525D01*
X92077964Y-58739311D01*
X92068577Y-58747500D01*
X91976314Y-58827986D01*
X91964370Y-58838405D01*
X91962204Y-58841487D01*
X91962203Y-58841488D01*
X91936489Y-58878076D01*
X91877693Y-58961734D01*
X91876324Y-58965245D01*
X91876323Y-58965247D01*
X91828075Y-59088998D01*
X91822936Y-59102178D01*
X91822444Y-59105915D01*
X91811719Y-59187382D01*
X91803260Y-59251630D01*
X91819802Y-59401461D01*
X91871606Y-59543022D01*
X91955681Y-59668139D01*
X91958468Y-59670675D01*
X92036054Y-59741273D01*
X92056422Y-59784556D01*
X92040218Y-59829563D01*
X91993991Y-59850000D01*
X90834119Y-59850000D01*
X90789925Y-59831694D01*
X90771619Y-59787500D01*
X90793528Y-59739975D01*
X90857546Y-59685298D01*
X90860408Y-59682854D01*
X90862603Y-59679799D01*
X90862606Y-59679796D01*
X90946172Y-59563502D01*
X90946173Y-59563500D01*
X90948372Y-59560440D01*
X91004597Y-59420576D01*
X91019541Y-59315569D01*
X91025549Y-59273358D01*
X91025549Y-59273353D01*
X91025836Y-59271339D01*
X91025974Y-59258200D01*
X91025729Y-59256179D01*
X91025729Y-59256171D01*
X91008317Y-59112295D01*
X91007864Y-59108550D01*
X91005457Y-59102178D01*
X90955913Y-58971065D01*
X90954581Y-58967540D01*
X90869200Y-58843310D01*
X90756651Y-58743032D01*
X90749624Y-58739311D01*
X90651317Y-58687261D01*
X90623431Y-58672496D01*
X90477231Y-58635773D01*
X90473466Y-58635753D01*
X90473464Y-58635753D01*
X90399111Y-58635364D01*
X90326491Y-58634984D01*
X90322827Y-58635864D01*
X90322824Y-58635864D01*
X90256706Y-58651738D01*
X90179915Y-58670174D01*
X90176573Y-58671899D01*
X90176570Y-58671900D01*
X90155985Y-58682525D01*
X90045964Y-58739311D01*
X90036577Y-58747500D01*
X89944314Y-58827986D01*
X89932370Y-58838405D01*
X89930204Y-58841487D01*
X89930203Y-58841488D01*
X89904489Y-58878076D01*
X89845693Y-58961734D01*
X89844324Y-58965245D01*
X89844323Y-58965247D01*
X89796075Y-59088998D01*
X89790936Y-59102178D01*
X89790444Y-59105915D01*
X89779719Y-59187382D01*
X89771260Y-59251630D01*
X89787802Y-59401461D01*
X89839606Y-59543022D01*
X89923681Y-59668139D01*
X89926468Y-59670675D01*
X90004054Y-59741273D01*
X90024422Y-59784556D01*
X90008218Y-59829563D01*
X89961991Y-59850000D01*
X82936759Y-59850000D01*
X82897979Y-59836000D01*
X81285500Y-59836000D01*
X81241306Y-59817694D01*
X81223000Y-59773500D01*
X81223000Y-58561431D01*
X81731000Y-58561431D01*
X81731000Y-59315569D01*
X81734641Y-59324359D01*
X81743431Y-59328000D01*
X82891670Y-59328000D01*
X82900460Y-59324359D01*
X82901962Y-59320732D01*
X82865279Y-59196095D01*
X82862998Y-59190449D01*
X82771975Y-59016336D01*
X82768645Y-59011248D01*
X82645536Y-58858132D01*
X82641281Y-58853788D01*
X82490781Y-58727503D01*
X82485751Y-58724059D01*
X82313591Y-58629412D01*
X82307994Y-58627014D01*
X82120727Y-58567610D01*
X82114773Y-58566344D01*
X81961886Y-58549195D01*
X81958408Y-58549000D01*
X81743431Y-58549000D01*
X81734641Y-58552641D01*
X81731000Y-58561431D01*
X81223000Y-58561431D01*
X81219359Y-58552641D01*
X81210569Y-58549000D01*
X81002563Y-58549000D01*
X80999503Y-58549150D01*
X80853426Y-58563473D01*
X80847461Y-58564654D01*
X80659372Y-58621441D01*
X80653753Y-58623757D01*
X80480279Y-58715994D01*
X80475214Y-58719360D01*
X80322960Y-58843535D01*
X80318642Y-58847823D01*
X80260657Y-58917915D01*
X80218382Y-58940299D01*
X80172661Y-58926233D01*
X80150277Y-58883958D01*
X80150000Y-58878076D01*
X80150000Y-55372000D01*
X84706648Y-55372000D01*
X84726703Y-55485739D01*
X84784450Y-55585760D01*
X84788638Y-55589274D01*
X84851024Y-55641622D01*
X84873112Y-55684053D01*
X84858728Y-55729674D01*
X84851024Y-55737378D01*
X84826348Y-55758084D01*
X84784450Y-55793240D01*
X84781717Y-55797974D01*
X84730996Y-55885826D01*
X84726703Y-55893261D01*
X84706648Y-56007000D01*
X84726703Y-56120739D01*
X84729436Y-56125473D01*
X84729437Y-56125475D01*
X84736857Y-56138327D01*
X84784450Y-56220760D01*
X84788638Y-56224274D01*
X84851024Y-56276622D01*
X84873112Y-56319053D01*
X84858728Y-56364674D01*
X84851024Y-56372378D01*
X84784450Y-56428240D01*
X84781717Y-56432974D01*
X84730996Y-56520826D01*
X84726703Y-56528261D01*
X84706648Y-56642000D01*
X84726703Y-56755739D01*
X84729436Y-56760473D01*
X84729437Y-56760475D01*
X84742015Y-56782261D01*
X84784450Y-56855760D01*
X84788638Y-56859274D01*
X84850219Y-56910946D01*
X84872924Y-56929998D01*
X84900294Y-56939960D01*
X84976314Y-56967630D01*
X84976317Y-56967630D01*
X84981453Y-56969500D01*
X85096947Y-56969500D01*
X85102083Y-56967630D01*
X85102086Y-56967630D01*
X85178106Y-56939960D01*
X85205476Y-56929998D01*
X85228182Y-56910946D01*
X85289762Y-56859274D01*
X85293950Y-56855760D01*
X85296683Y-56851026D01*
X85296685Y-56851024D01*
X85300048Y-56845199D01*
X85337999Y-56816079D01*
X85354174Y-56813950D01*
X85602488Y-56813950D01*
X85646682Y-56832256D01*
X86781416Y-57966990D01*
X86788909Y-57976047D01*
X86800300Y-57992808D01*
X86806967Y-57996383D01*
X86806968Y-57996384D01*
X86832110Y-58009865D01*
X86834951Y-58011485D01*
X86865841Y-58030192D01*
X86870577Y-58030490D01*
X86874758Y-58032732D01*
X86878067Y-58033150D01*
X86910888Y-58033150D01*
X86914812Y-58033273D01*
X86950161Y-58035497D01*
X86954639Y-58033503D01*
X86958596Y-58033150D01*
X93362818Y-58033150D01*
X93407012Y-58051456D01*
X93818651Y-58463095D01*
X93826144Y-58472152D01*
X93837535Y-58488913D01*
X93844202Y-58492488D01*
X93844203Y-58492489D01*
X93869345Y-58505970D01*
X93872186Y-58507590D01*
X93903076Y-58526297D01*
X93907812Y-58526595D01*
X93911993Y-58528837D01*
X93915302Y-58529255D01*
X93948123Y-58529255D01*
X93952047Y-58529378D01*
X93987396Y-58531602D01*
X93991874Y-58529608D01*
X93995831Y-58529255D01*
X94097528Y-58529255D01*
X94141722Y-58547561D01*
X94160028Y-58591755D01*
X94159078Y-58602608D01*
X94156397Y-58617812D01*
X94156397Y-58617818D01*
X94155448Y-58623200D01*
X94175503Y-58736939D01*
X94178236Y-58741673D01*
X94178237Y-58741675D01*
X94181600Y-58747500D01*
X94233250Y-58836960D01*
X94321724Y-58911198D01*
X94363032Y-58926233D01*
X94425114Y-58948830D01*
X94425117Y-58948830D01*
X94430253Y-58950700D01*
X94545747Y-58950700D01*
X94550883Y-58948830D01*
X94550886Y-58948830D01*
X94612968Y-58926233D01*
X94654276Y-58911198D01*
X94742750Y-58836960D01*
X94763512Y-58801000D01*
X97635248Y-58801000D01*
X97655303Y-58914739D01*
X97658036Y-58919473D01*
X97658037Y-58919475D01*
X97683995Y-58964435D01*
X97713050Y-59014760D01*
X97801524Y-59088998D01*
X97828092Y-59098668D01*
X97904914Y-59126630D01*
X97904917Y-59126630D01*
X97910053Y-59128500D01*
X98025547Y-59128500D01*
X98030683Y-59126630D01*
X98030686Y-59126630D01*
X98107508Y-59098668D01*
X98134076Y-59088998D01*
X98222550Y-59014760D01*
X98251605Y-58964435D01*
X98277563Y-58919475D01*
X98277564Y-58919473D01*
X98280297Y-58914739D01*
X98300352Y-58801000D01*
X98280297Y-58687261D01*
X98272792Y-58674261D01*
X98254638Y-58642818D01*
X98248395Y-58595392D01*
X98277515Y-58557441D01*
X98324941Y-58551198D01*
X98334300Y-58555075D01*
X98334924Y-58555598D01*
X98381290Y-58572474D01*
X98438314Y-58593230D01*
X98438317Y-58593230D01*
X98443453Y-58595100D01*
X98558947Y-58595100D01*
X98567536Y-58591974D01*
X98621110Y-58572474D01*
X98668900Y-58574561D01*
X98701218Y-58609828D01*
X98699131Y-58657618D01*
X98696614Y-58662455D01*
X98672349Y-58704484D01*
X98663605Y-58719629D01*
X98643550Y-58833368D01*
X98663605Y-58947107D01*
X98721352Y-59047128D01*
X98752955Y-59073646D01*
X98799016Y-59112295D01*
X98809826Y-59121366D01*
X98858825Y-59139201D01*
X98913216Y-59158998D01*
X98913219Y-59158998D01*
X98918355Y-59160868D01*
X99033849Y-59160868D01*
X99038985Y-59158998D01*
X99038988Y-59158998D01*
X99093379Y-59139201D01*
X99142378Y-59121366D01*
X99153189Y-59112295D01*
X99199249Y-59073646D01*
X99230852Y-59047128D01*
X99288599Y-58947107D01*
X99308654Y-58833368D01*
X99302947Y-58801000D01*
X101242048Y-58801000D01*
X101262103Y-58914739D01*
X101264836Y-58919473D01*
X101264837Y-58919475D01*
X101290795Y-58964435D01*
X101319850Y-59014760D01*
X101408324Y-59088998D01*
X101434892Y-59098668D01*
X101511714Y-59126630D01*
X101511717Y-59126630D01*
X101516853Y-59128500D01*
X101632347Y-59128500D01*
X101637483Y-59126630D01*
X101637486Y-59126630D01*
X101714308Y-59098668D01*
X101740876Y-59088998D01*
X101829350Y-59014760D01*
X101858405Y-58964435D01*
X101884363Y-58919475D01*
X101884364Y-58919473D01*
X101887097Y-58914739D01*
X101907152Y-58801000D01*
X101887097Y-58687261D01*
X101879592Y-58674261D01*
X101838223Y-58602608D01*
X101829350Y-58587240D01*
X101756852Y-58526407D01*
X101745064Y-58516516D01*
X101740876Y-58513002D01*
X101680812Y-58491140D01*
X101637486Y-58475370D01*
X101637483Y-58475370D01*
X101632347Y-58473500D01*
X101516853Y-58473500D01*
X101511717Y-58475370D01*
X101511714Y-58475370D01*
X101468388Y-58491140D01*
X101408324Y-58513002D01*
X101404136Y-58516516D01*
X101392348Y-58526407D01*
X101319850Y-58587240D01*
X101310977Y-58602608D01*
X101269609Y-58674261D01*
X101262103Y-58687261D01*
X101242048Y-58801000D01*
X99302947Y-58801000D01*
X99288599Y-58719629D01*
X99273021Y-58692646D01*
X99233585Y-58624342D01*
X99230852Y-58619608D01*
X99165360Y-58564654D01*
X99146566Y-58548884D01*
X99142378Y-58545370D01*
X99090795Y-58526595D01*
X99038988Y-58507738D01*
X99038985Y-58507738D01*
X99033849Y-58505868D01*
X98918355Y-58505868D01*
X98913218Y-58507738D01*
X98913217Y-58507738D01*
X98889100Y-58516516D01*
X98856192Y-58528494D01*
X98808402Y-58526407D01*
X98776084Y-58491140D01*
X98778171Y-58443350D01*
X98780688Y-58438513D01*
X98810963Y-58386075D01*
X98810964Y-58386073D01*
X98813697Y-58381339D01*
X98833752Y-58267600D01*
X98813697Y-58153861D01*
X98798126Y-58126890D01*
X98758683Y-58058574D01*
X98755950Y-58053840D01*
X98687476Y-57996384D01*
X98671664Y-57983116D01*
X98667476Y-57979602D01*
X98618477Y-57961767D01*
X98564086Y-57941970D01*
X98564083Y-57941970D01*
X98558947Y-57940100D01*
X98443453Y-57940100D01*
X98438317Y-57941970D01*
X98438314Y-57941970D01*
X98383923Y-57961767D01*
X98334924Y-57979602D01*
X98330736Y-57983116D01*
X98314924Y-57996384D01*
X98246450Y-58053840D01*
X98243717Y-58058574D01*
X98204275Y-58126890D01*
X98188703Y-58153861D01*
X98168648Y-58267600D01*
X98188703Y-58381339D01*
X98191436Y-58386073D01*
X98191437Y-58386075D01*
X98214362Y-58425782D01*
X98220605Y-58473208D01*
X98191485Y-58511159D01*
X98144059Y-58517402D01*
X98134700Y-58513525D01*
X98134076Y-58513002D01*
X98074012Y-58491140D01*
X98030686Y-58475370D01*
X98030683Y-58475370D01*
X98025547Y-58473500D01*
X97910053Y-58473500D01*
X97904917Y-58475370D01*
X97904914Y-58475370D01*
X97861588Y-58491140D01*
X97801524Y-58513002D01*
X97797336Y-58516516D01*
X97785548Y-58526407D01*
X97713050Y-58587240D01*
X97704177Y-58602608D01*
X97662809Y-58674261D01*
X97655303Y-58687261D01*
X97635248Y-58801000D01*
X94763512Y-58801000D01*
X94794400Y-58747500D01*
X94797763Y-58741675D01*
X94797764Y-58741673D01*
X94800497Y-58736939D01*
X94820552Y-58623200D01*
X94800497Y-58509461D01*
X94789920Y-58491140D01*
X94748847Y-58420000D01*
X94742750Y-58409440D01*
X94654276Y-58335202D01*
X94609765Y-58319001D01*
X94574497Y-58286684D01*
X94572410Y-58238894D01*
X94604727Y-58203626D01*
X94631141Y-58197770D01*
X95760223Y-58197769D01*
X96136487Y-58197769D01*
X96180681Y-58216075D01*
X96198987Y-58260269D01*
X96190614Y-58291518D01*
X96184838Y-58301522D01*
X96184836Y-58301527D01*
X96182103Y-58306261D01*
X96162048Y-58420000D01*
X96182103Y-58533739D01*
X96184836Y-58538473D01*
X96184837Y-58538475D01*
X96210963Y-58583726D01*
X96239850Y-58633760D01*
X96328324Y-58707998D01*
X96375074Y-58725014D01*
X96431714Y-58745630D01*
X96431717Y-58745630D01*
X96436853Y-58747500D01*
X96552347Y-58747500D01*
X96557483Y-58745630D01*
X96557486Y-58745630D01*
X96614126Y-58725014D01*
X96660876Y-58707998D01*
X96749350Y-58633760D01*
X96778237Y-58583726D01*
X96804363Y-58538475D01*
X96804364Y-58538473D01*
X96807097Y-58533739D01*
X96827152Y-58420000D01*
X96807097Y-58306261D01*
X96804364Y-58301527D01*
X96804362Y-58301522D01*
X96798586Y-58291518D01*
X96792343Y-58244092D01*
X96821464Y-58206142D01*
X96852713Y-58197769D01*
X97755289Y-58197769D01*
X97767000Y-58198876D01*
X97786900Y-58202672D01*
X97794137Y-58200487D01*
X97794138Y-58200487D01*
X97808550Y-58196136D01*
X97821469Y-58192235D01*
X97824611Y-58191376D01*
X97859679Y-58182762D01*
X97863238Y-58179624D01*
X97867780Y-58178253D01*
X97870415Y-58176209D01*
X97893623Y-58153001D01*
X97896485Y-58150313D01*
X97917379Y-58131893D01*
X97917380Y-58131891D01*
X97923053Y-58126890D01*
X97924810Y-58122313D01*
X97927358Y-58119266D01*
X98886627Y-57159997D01*
X98930821Y-57141691D01*
X98975015Y-57159997D01*
X98993321Y-57204191D01*
X98992372Y-57215044D01*
X98982907Y-57268728D01*
X98981448Y-57277000D01*
X99001503Y-57390739D01*
X99004236Y-57395473D01*
X99004237Y-57395475D01*
X99026461Y-57433968D01*
X99059250Y-57490760D01*
X99147724Y-57564998D01*
X99181677Y-57577356D01*
X99251114Y-57602630D01*
X99251117Y-57602630D01*
X99256253Y-57604500D01*
X99371747Y-57604500D01*
X99376883Y-57602630D01*
X99376886Y-57602630D01*
X99425017Y-57585111D01*
X99472807Y-57587198D01*
X99505125Y-57622465D01*
X99507945Y-57654695D01*
X99489448Y-57759598D01*
X99509503Y-57873337D01*
X99567250Y-57973358D01*
X99571438Y-57976872D01*
X99634983Y-58030192D01*
X99655724Y-58047596D01*
X99704723Y-58065431D01*
X99759114Y-58085228D01*
X99759117Y-58085228D01*
X99764253Y-58087098D01*
X99879747Y-58087098D01*
X99884883Y-58085228D01*
X99884886Y-58085228D01*
X99939277Y-58065431D01*
X99988276Y-58047596D01*
X100009018Y-58030192D01*
X100072562Y-57976872D01*
X100076750Y-57973358D01*
X100134497Y-57873337D01*
X100154552Y-57759598D01*
X100134497Y-57645859D01*
X100130220Y-57638450D01*
X100079483Y-57550572D01*
X100076750Y-57545838D01*
X99988276Y-57471600D01*
X99927283Y-57449400D01*
X99884886Y-57433968D01*
X99884883Y-57433968D01*
X99879747Y-57432098D01*
X99764253Y-57432098D01*
X99759117Y-57433968D01*
X99759114Y-57433968D01*
X99710983Y-57451487D01*
X99663193Y-57449400D01*
X99630875Y-57414133D01*
X99628055Y-57381903D01*
X99645603Y-57282382D01*
X99646552Y-57277000D01*
X99626497Y-57163261D01*
X99568750Y-57063240D01*
X99487305Y-56994900D01*
X99484464Y-56992516D01*
X99480276Y-56989002D01*
X99396565Y-56958533D01*
X99376886Y-56951370D01*
X99376883Y-56951370D01*
X99371747Y-56949500D01*
X99256253Y-56949500D01*
X99255182Y-56949890D01*
X99210399Y-56939960D01*
X99184697Y-56899616D01*
X99195052Y-56852915D01*
X99202054Y-56844570D01*
X99254153Y-56792471D01*
X99603519Y-56792471D01*
X99623574Y-56906210D01*
X99626307Y-56910944D01*
X99626308Y-56910946D01*
X99648567Y-56949500D01*
X99681321Y-57006231D01*
X99769795Y-57080469D01*
X99818794Y-57098304D01*
X99873185Y-57118101D01*
X99873188Y-57118101D01*
X99878324Y-57119971D01*
X99993818Y-57119971D01*
X99998954Y-57118101D01*
X99998957Y-57118101D01*
X100053348Y-57098304D01*
X100102347Y-57080469D01*
X100190821Y-57006231D01*
X100223575Y-56949500D01*
X100245834Y-56910946D01*
X100245835Y-56910944D01*
X100248568Y-56906210D01*
X100268623Y-56792471D01*
X100251049Y-56692800D01*
X102613648Y-56692800D01*
X102633703Y-56806539D01*
X102636436Y-56811273D01*
X102636437Y-56811275D01*
X102660047Y-56852168D01*
X102691450Y-56906560D01*
X102779924Y-56980798D01*
X102828923Y-56998633D01*
X102883314Y-57018430D01*
X102883317Y-57018430D01*
X102888453Y-57020300D01*
X103003947Y-57020300D01*
X103009083Y-57018430D01*
X103009086Y-57018430D01*
X103063477Y-56998633D01*
X103112476Y-56980798D01*
X103200950Y-56906560D01*
X103232353Y-56852168D01*
X103255963Y-56811275D01*
X103255964Y-56811273D01*
X103258697Y-56806539D01*
X103278752Y-56692800D01*
X103258697Y-56579061D01*
X103254424Y-56571659D01*
X103219051Y-56510392D01*
X103200950Y-56479040D01*
X103122711Y-56413390D01*
X103116664Y-56408316D01*
X103112476Y-56404802D01*
X103052346Y-56382916D01*
X103009086Y-56367170D01*
X103009083Y-56367170D01*
X103003947Y-56365300D01*
X102888453Y-56365300D01*
X102883317Y-56367170D01*
X102883314Y-56367170D01*
X102840054Y-56382916D01*
X102779924Y-56404802D01*
X102775736Y-56408316D01*
X102769689Y-56413390D01*
X102691450Y-56479040D01*
X102673349Y-56510392D01*
X102637977Y-56571659D01*
X102633703Y-56579061D01*
X102613648Y-56692800D01*
X100251049Y-56692800D01*
X100248568Y-56678732D01*
X100242026Y-56667400D01*
X100204075Y-56601667D01*
X100190821Y-56578711D01*
X100135193Y-56532034D01*
X100106535Y-56507987D01*
X100102347Y-56504473D01*
X100032472Y-56479040D01*
X99998957Y-56466841D01*
X99998954Y-56466841D01*
X99993818Y-56464971D01*
X99878324Y-56464971D01*
X99873188Y-56466841D01*
X99873185Y-56466841D01*
X99839670Y-56479040D01*
X99769795Y-56504473D01*
X99765607Y-56507987D01*
X99736949Y-56532034D01*
X99681321Y-56578711D01*
X99668067Y-56601667D01*
X99630117Y-56667400D01*
X99623574Y-56678732D01*
X99603519Y-56792471D01*
X99254153Y-56792471D01*
X99953190Y-56093434D01*
X99962247Y-56085941D01*
X99979008Y-56074550D01*
X99982583Y-56067883D01*
X99982584Y-56067882D01*
X99996065Y-56042740D01*
X99997685Y-56039899D01*
X100008565Y-56021933D01*
X100016392Y-56009009D01*
X100016690Y-56004273D01*
X100018932Y-56000092D01*
X100019350Y-55996783D01*
X100019350Y-55963962D01*
X100019473Y-55960038D01*
X100021222Y-55932236D01*
X100021697Y-55924689D01*
X100019703Y-55920211D01*
X100019350Y-55916254D01*
X100019350Y-55676800D01*
X102029448Y-55676800D01*
X102049503Y-55790539D01*
X102052236Y-55795273D01*
X102052237Y-55795275D01*
X102055600Y-55801100D01*
X102107250Y-55890560D01*
X102195724Y-55964798D01*
X102221660Y-55974238D01*
X102299114Y-56002430D01*
X102299117Y-56002430D01*
X102304253Y-56004300D01*
X102419747Y-56004300D01*
X102424883Y-56002430D01*
X102424886Y-56002430D01*
X102502340Y-55974238D01*
X102528276Y-55964798D01*
X102616750Y-55890560D01*
X102637512Y-55854600D01*
X117802848Y-55854600D01*
X117822903Y-55968339D01*
X117825636Y-55973073D01*
X117825637Y-55973075D01*
X117842585Y-56002430D01*
X117880650Y-56068360D01*
X117921098Y-56102300D01*
X117948302Y-56125126D01*
X117969124Y-56142598D01*
X118018123Y-56160433D01*
X118072514Y-56180230D01*
X118072517Y-56180230D01*
X118077653Y-56182100D01*
X118193147Y-56182100D01*
X118198283Y-56180230D01*
X118198286Y-56180230D01*
X118252677Y-56160433D01*
X118301676Y-56142598D01*
X118322499Y-56125126D01*
X118349702Y-56102300D01*
X118390150Y-56068360D01*
X118428215Y-56002430D01*
X118445163Y-55973075D01*
X118445164Y-55973073D01*
X118447897Y-55968339D01*
X118467952Y-55854600D01*
X118447897Y-55740861D01*
X118428512Y-55707284D01*
X118392883Y-55645574D01*
X118390150Y-55640840D01*
X118301676Y-55566602D01*
X118252677Y-55548767D01*
X118198286Y-55528970D01*
X118198283Y-55528970D01*
X118193147Y-55527100D01*
X118077653Y-55527100D01*
X118072517Y-55528970D01*
X118072514Y-55528970D01*
X118018123Y-55548767D01*
X117969124Y-55566602D01*
X117880650Y-55640840D01*
X117877917Y-55645574D01*
X117842289Y-55707284D01*
X117822903Y-55740861D01*
X117802848Y-55854600D01*
X102637512Y-55854600D01*
X102668400Y-55801100D01*
X102671763Y-55795275D01*
X102671764Y-55795273D01*
X102674497Y-55790539D01*
X102694552Y-55676800D01*
X102674497Y-55563061D01*
X102664204Y-55545232D01*
X102620263Y-55469125D01*
X102616750Y-55463040D01*
X102528276Y-55388802D01*
X102448763Y-55359861D01*
X102424886Y-55351170D01*
X102424883Y-55351170D01*
X102419747Y-55349300D01*
X102304253Y-55349300D01*
X102299117Y-55351170D01*
X102299114Y-55351170D01*
X102275237Y-55359861D01*
X102195724Y-55388802D01*
X102107250Y-55463040D01*
X102103737Y-55469125D01*
X102059797Y-55545232D01*
X102049503Y-55563061D01*
X102029448Y-55676800D01*
X100019350Y-55676800D01*
X100019350Y-54941751D01*
X100027723Y-54910502D01*
X100030162Y-54906278D01*
X100030164Y-54906273D01*
X100032897Y-54901539D01*
X100052952Y-54787800D01*
X100032897Y-54674061D01*
X100022134Y-54655418D01*
X99977883Y-54578774D01*
X99975150Y-54574040D01*
X99886676Y-54499802D01*
X99833480Y-54480440D01*
X99783286Y-54462170D01*
X99783283Y-54462170D01*
X99778147Y-54460300D01*
X99662653Y-54460300D01*
X99657517Y-54462170D01*
X99657514Y-54462170D01*
X99607320Y-54480440D01*
X99554124Y-54499802D01*
X99465650Y-54574040D01*
X99429119Y-54637314D01*
X99391170Y-54666433D01*
X99343743Y-54660190D01*
X99334819Y-54653941D01*
X99306664Y-54630316D01*
X99302476Y-54626802D01*
X99228279Y-54599796D01*
X99199086Y-54589170D01*
X99199083Y-54589170D01*
X99193947Y-54587300D01*
X99078453Y-54587300D01*
X99073317Y-54589170D01*
X99073314Y-54589170D01*
X99044121Y-54599796D01*
X98969924Y-54626802D01*
X98965736Y-54630316D01*
X98937581Y-54653941D01*
X98881450Y-54701040D01*
X98878717Y-54705774D01*
X98834467Y-54782418D01*
X98823703Y-54801061D01*
X98803648Y-54914800D01*
X98823703Y-55028539D01*
X98826436Y-55033273D01*
X98826437Y-55033275D01*
X98845218Y-55065805D01*
X98881450Y-55128560D01*
X98969924Y-55202798D01*
X99032093Y-55225426D01*
X99050127Y-55231990D01*
X99085394Y-55264308D01*
X99091250Y-55290721D01*
X99091250Y-56138488D01*
X99072944Y-56182682D01*
X97635482Y-57620144D01*
X97591288Y-57638450D01*
X94229513Y-57638450D01*
X94185319Y-57620144D01*
X93461174Y-56896000D01*
X95196848Y-56896000D01*
X95216903Y-57009739D01*
X95219636Y-57014473D01*
X95219637Y-57014475D01*
X95245763Y-57059726D01*
X95274650Y-57109760D01*
X95284985Y-57118432D01*
X95334521Y-57159997D01*
X95363124Y-57183998D01*
X95412123Y-57201833D01*
X95466514Y-57221630D01*
X95466517Y-57221630D01*
X95471653Y-57223500D01*
X95587147Y-57223500D01*
X95592283Y-57221630D01*
X95592286Y-57221630D01*
X95646677Y-57201833D01*
X95695676Y-57183998D01*
X95724280Y-57159997D01*
X95773815Y-57118432D01*
X95784150Y-57109760D01*
X95813037Y-57059726D01*
X95839163Y-57014475D01*
X95839164Y-57014473D01*
X95841897Y-57009739D01*
X95861952Y-56896000D01*
X95841897Y-56782261D01*
X95838141Y-56775754D01*
X95790247Y-56692800D01*
X95784150Y-56682240D01*
X95766464Y-56667400D01*
X96314448Y-56667400D01*
X96334503Y-56781139D01*
X96337236Y-56785873D01*
X96337237Y-56785875D01*
X96364015Y-56832256D01*
X96392250Y-56881160D01*
X96396438Y-56884674D01*
X96475924Y-56951370D01*
X96480724Y-56955398D01*
X96529723Y-56973233D01*
X96584114Y-56993030D01*
X96584117Y-56993030D01*
X96589253Y-56994900D01*
X96704747Y-56994900D01*
X96709883Y-56993030D01*
X96709886Y-56993030D01*
X96764277Y-56973233D01*
X96813276Y-56955398D01*
X96818077Y-56951370D01*
X96897562Y-56884674D01*
X96901750Y-56881160D01*
X96929985Y-56832256D01*
X96956763Y-56785875D01*
X96956764Y-56785873D01*
X96959497Y-56781139D01*
X96979552Y-56667400D01*
X96959497Y-56553661D01*
X96955257Y-56546316D01*
X96909656Y-56467333D01*
X96901750Y-56453640D01*
X96813276Y-56379402D01*
X96743692Y-56354075D01*
X96709886Y-56341770D01*
X96709883Y-56341770D01*
X96704747Y-56339900D01*
X96589253Y-56339900D01*
X96584117Y-56341770D01*
X96584114Y-56341770D01*
X96550308Y-56354075D01*
X96480724Y-56379402D01*
X96392250Y-56453640D01*
X96384344Y-56467333D01*
X96338744Y-56546316D01*
X96334503Y-56553661D01*
X96314448Y-56667400D01*
X95766464Y-56667400D01*
X95695676Y-56608002D01*
X95630958Y-56584446D01*
X95592286Y-56570370D01*
X95592283Y-56570370D01*
X95587147Y-56568500D01*
X95471653Y-56568500D01*
X95466517Y-56570370D01*
X95466514Y-56570370D01*
X95427842Y-56584446D01*
X95363124Y-56608002D01*
X95274650Y-56682240D01*
X95268553Y-56692800D01*
X95220660Y-56775754D01*
X95216903Y-56782261D01*
X95196848Y-56896000D01*
X93461174Y-56896000D01*
X93101384Y-56536210D01*
X93093891Y-56527153D01*
X93082500Y-56510392D01*
X93050663Y-56493321D01*
X93047850Y-56491716D01*
X93023426Y-56476924D01*
X93023424Y-56476924D01*
X93016959Y-56473008D01*
X93012223Y-56472710D01*
X93008042Y-56470468D01*
X93004733Y-56470050D01*
X92971912Y-56470050D01*
X92967988Y-56469927D01*
X92967974Y-56469926D01*
X92932639Y-56467703D01*
X92928161Y-56469696D01*
X92924201Y-56470050D01*
X92375258Y-56470050D01*
X92331064Y-56451744D01*
X92312758Y-56407550D01*
X92321131Y-56376300D01*
X92333963Y-56354075D01*
X92333964Y-56354073D01*
X92336697Y-56349339D01*
X92343316Y-56311800D01*
X97660648Y-56311800D01*
X97680703Y-56425539D01*
X97683436Y-56430273D01*
X97683437Y-56430275D01*
X97714325Y-56483774D01*
X97738450Y-56525560D01*
X97826924Y-56599798D01*
X97875923Y-56617633D01*
X97930314Y-56637430D01*
X97930317Y-56637430D01*
X97935453Y-56639300D01*
X98050947Y-56639300D01*
X98056083Y-56637430D01*
X98056086Y-56637430D01*
X98110477Y-56617633D01*
X98159476Y-56599798D01*
X98247950Y-56525560D01*
X98272075Y-56483774D01*
X98302963Y-56430275D01*
X98302964Y-56430273D01*
X98305697Y-56425539D01*
X98325752Y-56311800D01*
X98305697Y-56198061D01*
X98295403Y-56180230D01*
X98250683Y-56102774D01*
X98247950Y-56098040D01*
X98159476Y-56023802D01*
X98105896Y-56004300D01*
X98056086Y-55986170D01*
X98056083Y-55986170D01*
X98050947Y-55984300D01*
X97935453Y-55984300D01*
X97930317Y-55986170D01*
X97930314Y-55986170D01*
X97880504Y-56004300D01*
X97826924Y-56023802D01*
X97738450Y-56098040D01*
X97735717Y-56102774D01*
X97690998Y-56180230D01*
X97680703Y-56198061D01*
X97660648Y-56311800D01*
X92343316Y-56311800D01*
X92356752Y-56235600D01*
X92336697Y-56121861D01*
X92332941Y-56115354D01*
X92293470Y-56046990D01*
X92278950Y-56021840D01*
X92190476Y-55947602D01*
X92127524Y-55924689D01*
X92087086Y-55909970D01*
X92087083Y-55909970D01*
X92081947Y-55908100D01*
X91966453Y-55908100D01*
X91961317Y-55909970D01*
X91961314Y-55909970D01*
X91920876Y-55924689D01*
X91857924Y-55947602D01*
X91769450Y-56021840D01*
X91754930Y-56046990D01*
X91715460Y-56115354D01*
X91711703Y-56121861D01*
X91691648Y-56235600D01*
X91711703Y-56349339D01*
X91714436Y-56354073D01*
X91714437Y-56354075D01*
X91727269Y-56376300D01*
X91733512Y-56423726D01*
X91704392Y-56461677D01*
X91673142Y-56470050D01*
X90497144Y-56470050D01*
X90485434Y-56468943D01*
X90472962Y-56466564D01*
X90472961Y-56466564D01*
X90465532Y-56465147D01*
X90455493Y-56468178D01*
X90430980Y-56475579D01*
X90427823Y-56476443D01*
X90400099Y-56483252D01*
X90400097Y-56483253D01*
X90392752Y-56485057D01*
X90389193Y-56488195D01*
X90384651Y-56489566D01*
X90383440Y-56490506D01*
X90337769Y-56494341D01*
X90301233Y-56463466D01*
X90294902Y-56443660D01*
X90294207Y-56438801D01*
X90289936Y-56408981D01*
X90251525Y-56324500D01*
X90241096Y-56301562D01*
X90241095Y-56301560D01*
X90239252Y-56297507D01*
X90159318Y-56204739D01*
X90056560Y-56138135D01*
X89939238Y-56103048D01*
X89878012Y-56102674D01*
X89821238Y-56102327D01*
X89821237Y-56102327D01*
X89816785Y-56102300D01*
X89699044Y-56135951D01*
X89595480Y-56201295D01*
X89592537Y-56204627D01*
X89592535Y-56204629D01*
X89522148Y-56284326D01*
X89514418Y-56293079D01*
X89512526Y-56297109D01*
X89464268Y-56399895D01*
X89464267Y-56399898D01*
X89462376Y-56403926D01*
X89443536Y-56524924D01*
X89444113Y-56529337D01*
X89444113Y-56529338D01*
X89447294Y-56553661D01*
X89459414Y-56646345D01*
X89461207Y-56650420D01*
X89468679Y-56667400D01*
X89508733Y-56758430D01*
X89587527Y-56852168D01*
X89591232Y-56854634D01*
X89591234Y-56854636D01*
X89653375Y-56896000D01*
X89689464Y-56920023D01*
X89786423Y-56950315D01*
X89792124Y-56952096D01*
X89828848Y-56982748D01*
X89833142Y-57030390D01*
X89817680Y-57055946D01*
X89761482Y-57112144D01*
X89717288Y-57130450D01*
X87066712Y-57130450D01*
X87022518Y-57112144D01*
X85381361Y-55470987D01*
X85363055Y-55426793D01*
X85364005Y-55415940D01*
X85370803Y-55377388D01*
X85370803Y-55377382D01*
X85371752Y-55372000D01*
X85351697Y-55258261D01*
X85336530Y-55231990D01*
X85296683Y-55162974D01*
X85293950Y-55158240D01*
X85205476Y-55084002D01*
X85155481Y-55065805D01*
X85102086Y-55046370D01*
X85102083Y-55046370D01*
X85096947Y-55044500D01*
X84981453Y-55044500D01*
X84976317Y-55046370D01*
X84976314Y-55046370D01*
X84922919Y-55065805D01*
X84872924Y-55084002D01*
X84784450Y-55158240D01*
X84781717Y-55162974D01*
X84741871Y-55231990D01*
X84726703Y-55258261D01*
X84706648Y-55372000D01*
X80150000Y-55372000D01*
X80150000Y-55016400D01*
X87856248Y-55016400D01*
X87876303Y-55130139D01*
X87879036Y-55134873D01*
X87879037Y-55134875D01*
X87905498Y-55180706D01*
X87934050Y-55230160D01*
X88022524Y-55304398D01*
X88027660Y-55306267D01*
X88027661Y-55306268D01*
X88035975Y-55309294D01*
X88071243Y-55341611D01*
X88076149Y-55378878D01*
X88060397Y-55468212D01*
X88060397Y-55468218D01*
X88059448Y-55473600D01*
X88079503Y-55587339D01*
X88082236Y-55592073D01*
X88082237Y-55592075D01*
X88107921Y-55636560D01*
X88137250Y-55687360D01*
X88141438Y-55690874D01*
X88196860Y-55737378D01*
X88225724Y-55761598D01*
X88274723Y-55779433D01*
X88329114Y-55799230D01*
X88329117Y-55799230D01*
X88334253Y-55801100D01*
X88449747Y-55801100D01*
X88454883Y-55799230D01*
X88454886Y-55799230D01*
X88509277Y-55779433D01*
X88558276Y-55761598D01*
X88561382Y-55758992D01*
X94803001Y-55758992D01*
X94823056Y-55872731D01*
X94825789Y-55877465D01*
X94825790Y-55877467D01*
X94834909Y-55893261D01*
X94880803Y-55972752D01*
X94969277Y-56046990D01*
X95014983Y-56063626D01*
X95072667Y-56084622D01*
X95072670Y-56084622D01*
X95077806Y-56086492D01*
X95193300Y-56086492D01*
X95198436Y-56084622D01*
X95198439Y-56084622D01*
X95256123Y-56063626D01*
X95301829Y-56046990D01*
X95390303Y-55972752D01*
X95436197Y-55893261D01*
X95445316Y-55877467D01*
X95445317Y-55877465D01*
X95448050Y-55872731D01*
X95468105Y-55758992D01*
X95448050Y-55645253D01*
X95443474Y-55637326D01*
X95401562Y-55564733D01*
X95390303Y-55545232D01*
X95301829Y-55470994D01*
X95252830Y-55453159D01*
X95198439Y-55433362D01*
X95198436Y-55433362D01*
X95193300Y-55431492D01*
X95077806Y-55431492D01*
X95072670Y-55433362D01*
X95072667Y-55433362D01*
X95018276Y-55453159D01*
X94969277Y-55470994D01*
X94880803Y-55545232D01*
X94869544Y-55564733D01*
X94827633Y-55637326D01*
X94823056Y-55645253D01*
X94803001Y-55758992D01*
X88561382Y-55758992D01*
X88587141Y-55737378D01*
X88642562Y-55690874D01*
X88646750Y-55687360D01*
X88676079Y-55636560D01*
X88701763Y-55592075D01*
X88701764Y-55592073D01*
X88704497Y-55587339D01*
X88724552Y-55473600D01*
X88715595Y-55422800D01*
X95831848Y-55422800D01*
X95851903Y-55536539D01*
X95854636Y-55541273D01*
X95854637Y-55541275D01*
X95878123Y-55581954D01*
X95909650Y-55636560D01*
X95998124Y-55710798D01*
X96047123Y-55728633D01*
X96101514Y-55748430D01*
X96101517Y-55748430D01*
X96106653Y-55750300D01*
X96222147Y-55750300D01*
X96227283Y-55748430D01*
X96227286Y-55748430D01*
X96281677Y-55728633D01*
X96330676Y-55710798D01*
X96419150Y-55636560D01*
X96450677Y-55581954D01*
X96474163Y-55541275D01*
X96474164Y-55541273D01*
X96476897Y-55536539D01*
X96496952Y-55422800D01*
X96476897Y-55309061D01*
X96466309Y-55290721D01*
X96421883Y-55213774D01*
X96419150Y-55209040D01*
X96354421Y-55154726D01*
X96334864Y-55138316D01*
X96330676Y-55134802D01*
X96265617Y-55111122D01*
X96227286Y-55097170D01*
X96227283Y-55097170D01*
X96222147Y-55095300D01*
X96106653Y-55095300D01*
X96101517Y-55097170D01*
X96101514Y-55097170D01*
X96063183Y-55111122D01*
X95998124Y-55134802D01*
X95993936Y-55138316D01*
X95974379Y-55154726D01*
X95909650Y-55209040D01*
X95906917Y-55213774D01*
X95862492Y-55290721D01*
X95851903Y-55309061D01*
X95831848Y-55422800D01*
X88715595Y-55422800D01*
X88704497Y-55359861D01*
X88699480Y-55351170D01*
X88649483Y-55264574D01*
X88646750Y-55259840D01*
X88558276Y-55185602D01*
X88553140Y-55183733D01*
X88553139Y-55183732D01*
X88544825Y-55180706D01*
X88509557Y-55148389D01*
X88504651Y-55111122D01*
X88520403Y-55021788D01*
X88520403Y-55021782D01*
X88521352Y-55016400D01*
X88509432Y-54948798D01*
X88502933Y-54911937D01*
X88513287Y-54865235D01*
X88553631Y-54839533D01*
X88585862Y-54842354D01*
X88601852Y-54848174D01*
X88601853Y-54848174D01*
X88606993Y-54850045D01*
X88722487Y-54850045D01*
X88727623Y-54848175D01*
X88727626Y-54848175D01*
X88782017Y-54828378D01*
X88831016Y-54810543D01*
X88840435Y-54802640D01*
X88915302Y-54739819D01*
X88919490Y-54736305D01*
X88947926Y-54687053D01*
X88974503Y-54641020D01*
X88974504Y-54641018D01*
X88977237Y-54636284D01*
X88997292Y-54522545D01*
X88977237Y-54408806D01*
X88973441Y-54402230D01*
X88922223Y-54313519D01*
X88919490Y-54308785D01*
X88831016Y-54234547D01*
X88782017Y-54216712D01*
X88727626Y-54196915D01*
X88727623Y-54196915D01*
X88722487Y-54195045D01*
X88616795Y-54195045D01*
X88572601Y-54176739D01*
X88554295Y-54132545D01*
X88555244Y-54121692D01*
X88571203Y-54031182D01*
X88572152Y-54025800D01*
X88556083Y-53934667D01*
X88553046Y-53917441D01*
X88553045Y-53917439D01*
X88552097Y-53912061D01*
X88552370Y-53912013D01*
X88554316Y-53867414D01*
X88589585Y-53835095D01*
X88650616Y-53812881D01*
X88670076Y-53805798D01*
X88693068Y-53786506D01*
X88735418Y-53750970D01*
X88758550Y-53731560D01*
X88798115Y-53663032D01*
X88813563Y-53636275D01*
X88813564Y-53636273D01*
X88816297Y-53631539D01*
X88836352Y-53517800D01*
X90345448Y-53517800D01*
X90365503Y-53631539D01*
X90368236Y-53636273D01*
X90368237Y-53636275D01*
X90383685Y-53663032D01*
X90423250Y-53731560D01*
X90446382Y-53750970D01*
X90488733Y-53786506D01*
X90511724Y-53805798D01*
X90533297Y-53813650D01*
X90615114Y-53843430D01*
X90615117Y-53843430D01*
X90620253Y-53845300D01*
X90735747Y-53845300D01*
X90740887Y-53843429D01*
X90740888Y-53843429D01*
X90769303Y-53833087D01*
X90817093Y-53835174D01*
X90849410Y-53870442D01*
X90848910Y-53914521D01*
X90843154Y-53929284D01*
X90819350Y-53990339D01*
X90806936Y-54022178D01*
X90806444Y-54025915D01*
X90787940Y-54166467D01*
X90787260Y-54171630D01*
X90803802Y-54321461D01*
X90855606Y-54463022D01*
X90891987Y-54517163D01*
X90927846Y-54570526D01*
X90939681Y-54588139D01*
X91051174Y-54689590D01*
X91054483Y-54691387D01*
X91054485Y-54691388D01*
X91180337Y-54759721D01*
X91180342Y-54759723D01*
X91183648Y-54761518D01*
X91187290Y-54762473D01*
X91187294Y-54762475D01*
X91233282Y-54774539D01*
X91329456Y-54799769D01*
X91413950Y-54801096D01*
X91476409Y-54802078D01*
X91476411Y-54802078D01*
X91480178Y-54802137D01*
X91627115Y-54768484D01*
X91630479Y-54766792D01*
X91630482Y-54766791D01*
X91729038Y-54717222D01*
X91761783Y-54700753D01*
X91764648Y-54698306D01*
X91764651Y-54698304D01*
X91808562Y-54660800D01*
X97051048Y-54660800D01*
X97071103Y-54774539D01*
X97073836Y-54779273D01*
X97073837Y-54779275D01*
X97087327Y-54802640D01*
X97128850Y-54874560D01*
X97217324Y-54948798D01*
X97266323Y-54966633D01*
X97320714Y-54986430D01*
X97320717Y-54986430D01*
X97325853Y-54988300D01*
X97441347Y-54988300D01*
X97446483Y-54986430D01*
X97446486Y-54986430D01*
X97500877Y-54966633D01*
X97549876Y-54948798D01*
X97638350Y-54874560D01*
X97679873Y-54802640D01*
X97693363Y-54779275D01*
X97693364Y-54779273D01*
X97696097Y-54774539D01*
X97716152Y-54660800D01*
X97696097Y-54547061D01*
X97678836Y-54517163D01*
X97641083Y-54451774D01*
X97638350Y-54447040D01*
X97549876Y-54372802D01*
X97491158Y-54351430D01*
X97446486Y-54335170D01*
X97446483Y-54335170D01*
X97441347Y-54333300D01*
X97325853Y-54333300D01*
X97320717Y-54335170D01*
X97320714Y-54335170D01*
X97276042Y-54351430D01*
X97217324Y-54372802D01*
X97128850Y-54447040D01*
X97126117Y-54451774D01*
X97088365Y-54517163D01*
X97071103Y-54547061D01*
X97051048Y-54660800D01*
X91808562Y-54660800D01*
X91837266Y-54636284D01*
X91876408Y-54602854D01*
X91878603Y-54599799D01*
X91878606Y-54599796D01*
X91962172Y-54483502D01*
X91962173Y-54483500D01*
X91964372Y-54480440D01*
X92020597Y-54340576D01*
X92040286Y-54202230D01*
X92041549Y-54193358D01*
X92041549Y-54193353D01*
X92041836Y-54191339D01*
X92041974Y-54178200D01*
X92041729Y-54176179D01*
X92041729Y-54176171D01*
X92029679Y-54076600D01*
X95730248Y-54076600D01*
X95750303Y-54190339D01*
X95753036Y-54195073D01*
X95753037Y-54195075D01*
X95776972Y-54236532D01*
X95808050Y-54290360D01*
X95812238Y-54293874D01*
X95867896Y-54340576D01*
X95896524Y-54364598D01*
X95945523Y-54382433D01*
X95999914Y-54402230D01*
X95999917Y-54402230D01*
X96005053Y-54404100D01*
X96120547Y-54404100D01*
X96125683Y-54402230D01*
X96125686Y-54402230D01*
X96180077Y-54382433D01*
X96229076Y-54364598D01*
X96257705Y-54340576D01*
X96313362Y-54293874D01*
X96317550Y-54290360D01*
X96348628Y-54236532D01*
X96372563Y-54195075D01*
X96372564Y-54195073D01*
X96375297Y-54190339D01*
X96395352Y-54076600D01*
X96375297Y-53962861D01*
X96355912Y-53929284D01*
X96333846Y-53891065D01*
X96317550Y-53862840D01*
X96245382Y-53802284D01*
X96233264Y-53792116D01*
X96229076Y-53788602D01*
X96173149Y-53768246D01*
X96125686Y-53750970D01*
X96125683Y-53750970D01*
X96120547Y-53749100D01*
X96005053Y-53749100D01*
X95999917Y-53750970D01*
X95999914Y-53750970D01*
X95952451Y-53768246D01*
X95896524Y-53788602D01*
X95892336Y-53792116D01*
X95880218Y-53802284D01*
X95808050Y-53862840D01*
X95791754Y-53891065D01*
X95769689Y-53929284D01*
X95750303Y-53962861D01*
X95730248Y-54076600D01*
X92029679Y-54076600D01*
X92024317Y-54032295D01*
X92023864Y-54028550D01*
X92021457Y-54022178D01*
X91971913Y-53891065D01*
X91970581Y-53887540D01*
X91885200Y-53763310D01*
X91772651Y-53663032D01*
X91765624Y-53659311D01*
X91710844Y-53630307D01*
X91639431Y-53592496D01*
X91544297Y-53568600D01*
X96847848Y-53568600D01*
X96867903Y-53682339D01*
X96870636Y-53687073D01*
X96870637Y-53687075D01*
X96896321Y-53731560D01*
X96925650Y-53782360D01*
X96962024Y-53812881D01*
X96988498Y-53835095D01*
X97014124Y-53856598D01*
X97063123Y-53874433D01*
X97117514Y-53894230D01*
X97117517Y-53894230D01*
X97122653Y-53896100D01*
X97238147Y-53896100D01*
X97243283Y-53894230D01*
X97243286Y-53894230D01*
X97297677Y-53874433D01*
X97346676Y-53856598D01*
X97398776Y-53812881D01*
X97444397Y-53798497D01*
X97486828Y-53820585D01*
X97493076Y-53829508D01*
X97507115Y-53853824D01*
X97507117Y-53853826D01*
X97509850Y-53858560D01*
X97540614Y-53884374D01*
X97585463Y-53922006D01*
X97598324Y-53932798D01*
X97647323Y-53950633D01*
X97701714Y-53970430D01*
X97701717Y-53970430D01*
X97706853Y-53972300D01*
X97822347Y-53972300D01*
X97827483Y-53970430D01*
X97827486Y-53970430D01*
X97881877Y-53950633D01*
X97930876Y-53932798D01*
X97943738Y-53922006D01*
X97988586Y-53884374D01*
X98019350Y-53858560D01*
X98060951Y-53786506D01*
X98098901Y-53757386D01*
X98146327Y-53763629D01*
X98169203Y-53786506D01*
X98180111Y-53805398D01*
X98180113Y-53805400D01*
X98182847Y-53810136D01*
X98271321Y-53884374D01*
X98320320Y-53902209D01*
X98374711Y-53922006D01*
X98374714Y-53922006D01*
X98379850Y-53923876D01*
X98495344Y-53923876D01*
X98500480Y-53922006D01*
X98500483Y-53922006D01*
X98554874Y-53902209D01*
X98603873Y-53884374D01*
X98613138Y-53876600D01*
X99083048Y-53876600D01*
X99103103Y-53990339D01*
X99105836Y-53995073D01*
X99105837Y-53995075D01*
X99123576Y-54025800D01*
X99160850Y-54090360D01*
X99249324Y-54164598D01*
X99278939Y-54175377D01*
X99352714Y-54202230D01*
X99352717Y-54202230D01*
X99357853Y-54204100D01*
X99473347Y-54204100D01*
X99478483Y-54202230D01*
X99478486Y-54202230D01*
X99552261Y-54175377D01*
X99581876Y-54164598D01*
X99670350Y-54090360D01*
X99707624Y-54025800D01*
X99725363Y-53995075D01*
X99725364Y-53995073D01*
X99728097Y-53990339D01*
X99748152Y-53876600D01*
X99728097Y-53762861D01*
X99723151Y-53754293D01*
X99673083Y-53667574D01*
X99670350Y-53662840D01*
X99581876Y-53588602D01*
X99519504Y-53565900D01*
X99478486Y-53550970D01*
X99478483Y-53550970D01*
X99473347Y-53549100D01*
X99357853Y-53549100D01*
X99352717Y-53550970D01*
X99352714Y-53550970D01*
X99311696Y-53565900D01*
X99249324Y-53588602D01*
X99160850Y-53662840D01*
X99158117Y-53667574D01*
X99108050Y-53754293D01*
X99103103Y-53762861D01*
X99083048Y-53876600D01*
X98613138Y-53876600D01*
X98692347Y-53810136D01*
X98720829Y-53760803D01*
X98747360Y-53714851D01*
X98747361Y-53714849D01*
X98750094Y-53710115D01*
X98770149Y-53596376D01*
X98750094Y-53482637D01*
X98747156Y-53477547D01*
X98698235Y-53392815D01*
X98692347Y-53382616D01*
X98648110Y-53345497D01*
X98608061Y-53311892D01*
X98603873Y-53308378D01*
X98553219Y-53289941D01*
X98500483Y-53270746D01*
X98500480Y-53270746D01*
X98495344Y-53268876D01*
X98379850Y-53268876D01*
X98374714Y-53270746D01*
X98374711Y-53270746D01*
X98321975Y-53289941D01*
X98271321Y-53308378D01*
X98267133Y-53311892D01*
X98227084Y-53345497D01*
X98182847Y-53382616D01*
X98145297Y-53447656D01*
X98141247Y-53454670D01*
X98103296Y-53483790D01*
X98055870Y-53477547D01*
X98032994Y-53454670D01*
X98022086Y-53435778D01*
X98022084Y-53435776D01*
X98019350Y-53431040D01*
X97930876Y-53356802D01*
X97881877Y-53338967D01*
X97827486Y-53319170D01*
X97827483Y-53319170D01*
X97822347Y-53317300D01*
X97706853Y-53317300D01*
X97701717Y-53319170D01*
X97701714Y-53319170D01*
X97647323Y-53338967D01*
X97598324Y-53356802D01*
X97594136Y-53360316D01*
X97546224Y-53400519D01*
X97500603Y-53414903D01*
X97458172Y-53392815D01*
X97451924Y-53383892D01*
X97437885Y-53359576D01*
X97437883Y-53359573D01*
X97435150Y-53354840D01*
X97370421Y-53300526D01*
X97350864Y-53284116D01*
X97346676Y-53280602D01*
X97285727Y-53258418D01*
X97243286Y-53242970D01*
X97243283Y-53242970D01*
X97238147Y-53241100D01*
X97122653Y-53241100D01*
X97117517Y-53242970D01*
X97117514Y-53242970D01*
X97075073Y-53258418D01*
X97014124Y-53280602D01*
X97009936Y-53284116D01*
X96990379Y-53300526D01*
X96925650Y-53354840D01*
X96915654Y-53372154D01*
X96872063Y-53447656D01*
X96867903Y-53454861D01*
X96847848Y-53568600D01*
X91544297Y-53568600D01*
X91493231Y-53555773D01*
X91489466Y-53555753D01*
X91489464Y-53555753D01*
X91415111Y-53555364D01*
X91342491Y-53554984D01*
X91338827Y-53555864D01*
X91338824Y-53555864D01*
X91272706Y-53571738D01*
X91195915Y-53590174D01*
X91192573Y-53591899D01*
X91192570Y-53591900D01*
X91173471Y-53601758D01*
X91115679Y-53631587D01*
X91090083Y-53644798D01*
X91042415Y-53648800D01*
X91005878Y-53617925D01*
X90999866Y-53578406D01*
X91009603Y-53523182D01*
X91010552Y-53517800D01*
X90990497Y-53404061D01*
X90983857Y-53392559D01*
X90935483Y-53308774D01*
X90932750Y-53304040D01*
X90854523Y-53238400D01*
X95654048Y-53238400D01*
X95674103Y-53352139D01*
X95676836Y-53356873D01*
X95676837Y-53356875D01*
X95692837Y-53384588D01*
X95731850Y-53452160D01*
X95820324Y-53526398D01*
X95869323Y-53544233D01*
X95923714Y-53564030D01*
X95923717Y-53564030D01*
X95928853Y-53565900D01*
X96044347Y-53565900D01*
X96049483Y-53564030D01*
X96049486Y-53564030D01*
X96103877Y-53544233D01*
X96152876Y-53526398D01*
X96241350Y-53452160D01*
X96280363Y-53384588D01*
X96296363Y-53356875D01*
X96296364Y-53356873D01*
X96299097Y-53352139D01*
X96319152Y-53238400D01*
X96299097Y-53124661D01*
X96241350Y-53024640D01*
X96177590Y-52971139D01*
X96157064Y-52953916D01*
X96152876Y-52950402D01*
X96083292Y-52925075D01*
X96049486Y-52912770D01*
X96049483Y-52912770D01*
X96044347Y-52910900D01*
X95928853Y-52910900D01*
X95923717Y-52912770D01*
X95923714Y-52912770D01*
X95889908Y-52925075D01*
X95820324Y-52950402D01*
X95816136Y-52953916D01*
X95795610Y-52971139D01*
X95731850Y-53024640D01*
X95674103Y-53124661D01*
X95654048Y-53238400D01*
X90854523Y-53238400D01*
X90844276Y-53229802D01*
X90785558Y-53208430D01*
X90740886Y-53192170D01*
X90740883Y-53192170D01*
X90735747Y-53190300D01*
X90620253Y-53190300D01*
X90615117Y-53192170D01*
X90615114Y-53192170D01*
X90570442Y-53208430D01*
X90511724Y-53229802D01*
X90423250Y-53304040D01*
X90420517Y-53308774D01*
X90372144Y-53392559D01*
X90365503Y-53404061D01*
X90345448Y-53517800D01*
X88836352Y-53517800D01*
X88816297Y-53404061D01*
X88809657Y-53392559D01*
X88761283Y-53308774D01*
X88758550Y-53304040D01*
X88670076Y-53229802D01*
X88611358Y-53208430D01*
X88566686Y-53192170D01*
X88566683Y-53192170D01*
X88561547Y-53190300D01*
X88446053Y-53190300D01*
X88440917Y-53192170D01*
X88440914Y-53192170D01*
X88396242Y-53208430D01*
X88337524Y-53229802D01*
X88249050Y-53304040D01*
X88246317Y-53308774D01*
X88197944Y-53392559D01*
X88191303Y-53404061D01*
X88171248Y-53517800D01*
X88172197Y-53523182D01*
X88188903Y-53617925D01*
X88191086Y-53630307D01*
X88191303Y-53631539D01*
X88191030Y-53631587D01*
X88189084Y-53676186D01*
X88153815Y-53708505D01*
X88073324Y-53737802D01*
X88069136Y-53741316D01*
X88042544Y-53763629D01*
X87984850Y-53812040D01*
X87982117Y-53816774D01*
X87937398Y-53894230D01*
X87927103Y-53912061D01*
X87907048Y-54025800D01*
X87927103Y-54139539D01*
X87984850Y-54239560D01*
X88073324Y-54313798D01*
X88122323Y-54331633D01*
X88176714Y-54351430D01*
X88176717Y-54351430D01*
X88181853Y-54353300D01*
X88287545Y-54353300D01*
X88331739Y-54371606D01*
X88350045Y-54415800D01*
X88349096Y-54426653D01*
X88332188Y-54522545D01*
X88333137Y-54527927D01*
X88350607Y-54627008D01*
X88340253Y-54673710D01*
X88299909Y-54699412D01*
X88267678Y-54696591D01*
X88251688Y-54690771D01*
X88251687Y-54690771D01*
X88246547Y-54688900D01*
X88131053Y-54688900D01*
X88125917Y-54690770D01*
X88125914Y-54690770D01*
X88084693Y-54705774D01*
X88022524Y-54728402D01*
X88018336Y-54731916D01*
X88008918Y-54739819D01*
X87934050Y-54802640D01*
X87931317Y-54807374D01*
X87880060Y-54896154D01*
X87876303Y-54902661D01*
X87856248Y-55016400D01*
X80150000Y-55016400D01*
X80150000Y-53136256D01*
X80168306Y-53092062D01*
X80212500Y-53073756D01*
X80256694Y-53092062D01*
X80261209Y-53097093D01*
X80308470Y-53155874D01*
X80312719Y-53160212D01*
X80463219Y-53286497D01*
X80468249Y-53289941D01*
X80640409Y-53384588D01*
X80646006Y-53386986D01*
X80833273Y-53446390D01*
X80839227Y-53447656D01*
X80992114Y-53464805D01*
X80995592Y-53465000D01*
X81210569Y-53465000D01*
X81219359Y-53461359D01*
X81223000Y-53452569D01*
X81223000Y-52698431D01*
X81731000Y-52698431D01*
X81731000Y-53452569D01*
X81734641Y-53461359D01*
X81743431Y-53465000D01*
X81951437Y-53465000D01*
X81954497Y-53464850D01*
X82100574Y-53450527D01*
X82106539Y-53449346D01*
X82294628Y-53392559D01*
X82300247Y-53390243D01*
X82473721Y-53298006D01*
X82478786Y-53294640D01*
X82631040Y-53170465D01*
X82635358Y-53166177D01*
X82760590Y-53014797D01*
X82763993Y-53009753D01*
X82857440Y-52836925D01*
X82859794Y-52831325D01*
X82867448Y-52806600D01*
X105229848Y-52806600D01*
X105249903Y-52920339D01*
X105252636Y-52925073D01*
X105252637Y-52925075D01*
X105266181Y-52948533D01*
X105296632Y-53001275D01*
X105298176Y-53003950D01*
X105304419Y-53051376D01*
X105298177Y-53066448D01*
X105293958Y-53073756D01*
X105261459Y-53130046D01*
X105249903Y-53150061D01*
X105229848Y-53263800D01*
X105249903Y-53377539D01*
X105252636Y-53382273D01*
X105252637Y-53382275D01*
X105260925Y-53396630D01*
X105307650Y-53477560D01*
X105396124Y-53551798D01*
X105442286Y-53568600D01*
X105499514Y-53589430D01*
X105499517Y-53589430D01*
X105504653Y-53591300D01*
X105620147Y-53591300D01*
X105625283Y-53589430D01*
X105625286Y-53589430D01*
X105682514Y-53568600D01*
X105728676Y-53551798D01*
X105750826Y-53533212D01*
X105796447Y-53518828D01*
X105831174Y-53533212D01*
X105853324Y-53551798D01*
X105899486Y-53568600D01*
X105956714Y-53589430D01*
X105956717Y-53589430D01*
X105961853Y-53591300D01*
X106077347Y-53591300D01*
X106082483Y-53589430D01*
X106082486Y-53589430D01*
X106139714Y-53568600D01*
X106185876Y-53551798D01*
X106208026Y-53533212D01*
X106253647Y-53518828D01*
X106288374Y-53533212D01*
X106310524Y-53551798D01*
X106356686Y-53568600D01*
X106413914Y-53589430D01*
X106413917Y-53589430D01*
X106419053Y-53591300D01*
X106534547Y-53591300D01*
X106539683Y-53589430D01*
X106539686Y-53589430D01*
X106596914Y-53568600D01*
X106643076Y-53551798D01*
X106665226Y-53533212D01*
X106710847Y-53518828D01*
X106745574Y-53533212D01*
X106767724Y-53551798D01*
X106813886Y-53568600D01*
X106871114Y-53589430D01*
X106871117Y-53589430D01*
X106876253Y-53591300D01*
X106991747Y-53591300D01*
X106996883Y-53589430D01*
X106996886Y-53589430D01*
X107054114Y-53568600D01*
X107100276Y-53551798D01*
X107188750Y-53477560D01*
X107235475Y-53396630D01*
X107243763Y-53382275D01*
X107243764Y-53382273D01*
X107246497Y-53377539D01*
X107266552Y-53263800D01*
X107253117Y-53187604D01*
X113027644Y-53187604D01*
X113047699Y-53301343D01*
X113050432Y-53306077D01*
X113050433Y-53306079D01*
X113057991Y-53319170D01*
X113105446Y-53401364D01*
X113109634Y-53404878D01*
X113181053Y-53464805D01*
X113193920Y-53475602D01*
X113228043Y-53488022D01*
X113297310Y-53513234D01*
X113297313Y-53513234D01*
X113302449Y-53515104D01*
X113417943Y-53515104D01*
X113423079Y-53513234D01*
X113423082Y-53513234D01*
X113492349Y-53488022D01*
X113526472Y-53475602D01*
X113539340Y-53464805D01*
X113610758Y-53404878D01*
X113614946Y-53401364D01*
X113662401Y-53319170D01*
X113669959Y-53306079D01*
X113669960Y-53306077D01*
X113672693Y-53301343D01*
X113679313Y-53263800D01*
X114907248Y-53263800D01*
X114927303Y-53377539D01*
X114930036Y-53382273D01*
X114930037Y-53382275D01*
X114938325Y-53396630D01*
X114985050Y-53477560D01*
X115073524Y-53551798D01*
X115119686Y-53568600D01*
X115176914Y-53589430D01*
X115176917Y-53589430D01*
X115182053Y-53591300D01*
X115297547Y-53591300D01*
X115302683Y-53589430D01*
X115302686Y-53589430D01*
X115359914Y-53568600D01*
X115406076Y-53551798D01*
X115494550Y-53477560D01*
X115541275Y-53396630D01*
X115549563Y-53382275D01*
X115549564Y-53382273D01*
X115552297Y-53377539D01*
X115572352Y-53263800D01*
X115552297Y-53150061D01*
X115540742Y-53130046D01*
X115497283Y-53054774D01*
X115494550Y-53050040D01*
X115450313Y-53012921D01*
X115410264Y-52979316D01*
X115406076Y-52975802D01*
X115345946Y-52953916D01*
X115302686Y-52938170D01*
X115302683Y-52938170D01*
X115297547Y-52936300D01*
X115182053Y-52936300D01*
X115176917Y-52938170D01*
X115176914Y-52938170D01*
X115133654Y-52953916D01*
X115073524Y-52975802D01*
X115069336Y-52979316D01*
X115029287Y-53012921D01*
X114985050Y-53050040D01*
X114982317Y-53054774D01*
X114938859Y-53130046D01*
X114927303Y-53150061D01*
X114907248Y-53263800D01*
X113679313Y-53263800D01*
X113692748Y-53187604D01*
X113672693Y-53073865D01*
X113614946Y-52973844D01*
X113526472Y-52899606D01*
X113465512Y-52877418D01*
X113423082Y-52861974D01*
X113423079Y-52861974D01*
X113417943Y-52860104D01*
X113302449Y-52860104D01*
X113297313Y-52861974D01*
X113297310Y-52861974D01*
X113254880Y-52877418D01*
X113193920Y-52899606D01*
X113105446Y-52973844D01*
X113047699Y-53073865D01*
X113027644Y-53187604D01*
X107253117Y-53187604D01*
X107246497Y-53150061D01*
X107234942Y-53130046D01*
X107202442Y-53073756D01*
X107198224Y-53066449D01*
X107191981Y-53019024D01*
X107198224Y-53003950D01*
X107199769Y-53001275D01*
X107230219Y-52948533D01*
X107243763Y-52925075D01*
X107243764Y-52925073D01*
X107246497Y-52920339D01*
X107257595Y-52857400D01*
X121130248Y-52857400D01*
X121150303Y-52971139D01*
X121153036Y-52975873D01*
X121153037Y-52975875D01*
X121167702Y-53001275D01*
X121208050Y-53071160D01*
X121296524Y-53145398D01*
X121345523Y-53163233D01*
X121399914Y-53183030D01*
X121399917Y-53183030D01*
X121405053Y-53184900D01*
X121520547Y-53184900D01*
X121525683Y-53183030D01*
X121525686Y-53183030D01*
X121580077Y-53163233D01*
X121629076Y-53145398D01*
X121717550Y-53071160D01*
X121757898Y-53001275D01*
X121772563Y-52975875D01*
X121772564Y-52975873D01*
X121775297Y-52971139D01*
X121790873Y-52882800D01*
X130579048Y-52882800D01*
X130599103Y-52996539D01*
X130601836Y-53001273D01*
X130601837Y-53001275D01*
X130612856Y-53020360D01*
X130656850Y-53096560D01*
X130745324Y-53170798D01*
X130791497Y-53187604D01*
X130848714Y-53208430D01*
X130848717Y-53208430D01*
X130853853Y-53210300D01*
X130969347Y-53210300D01*
X130974483Y-53208430D01*
X130974486Y-53208430D01*
X131031703Y-53187604D01*
X131077876Y-53170798D01*
X131166350Y-53096560D01*
X131210344Y-53020360D01*
X131221363Y-53001275D01*
X131221364Y-53001273D01*
X131224097Y-52996539D01*
X131244152Y-52882800D01*
X131224097Y-52769061D01*
X131212542Y-52749046D01*
X131176142Y-52686000D01*
X131166350Y-52669040D01*
X131077876Y-52594802D01*
X131017746Y-52572916D01*
X130974486Y-52557170D01*
X130974483Y-52557170D01*
X130969347Y-52555300D01*
X130853853Y-52555300D01*
X130848717Y-52557170D01*
X130848714Y-52557170D01*
X130805454Y-52572916D01*
X130745324Y-52594802D01*
X130656850Y-52669040D01*
X130647058Y-52686000D01*
X130610659Y-52749046D01*
X130599103Y-52769061D01*
X130579048Y-52882800D01*
X121790873Y-52882800D01*
X121795352Y-52857400D01*
X121775297Y-52743661D01*
X121771005Y-52736226D01*
X121720283Y-52648374D01*
X121717550Y-52643640D01*
X121642318Y-52580513D01*
X121633264Y-52572916D01*
X121629076Y-52569402D01*
X121580077Y-52551567D01*
X121525686Y-52531770D01*
X121525683Y-52531770D01*
X121520547Y-52529900D01*
X121405053Y-52529900D01*
X121399917Y-52531770D01*
X121399914Y-52531770D01*
X121345523Y-52551567D01*
X121296524Y-52569402D01*
X121292336Y-52572916D01*
X121283282Y-52580513D01*
X121208050Y-52643640D01*
X121205317Y-52648374D01*
X121154596Y-52736226D01*
X121150303Y-52743661D01*
X121130248Y-52857400D01*
X107257595Y-52857400D01*
X107266552Y-52806600D01*
X107246497Y-52692861D01*
X107220813Y-52648374D01*
X107209416Y-52628635D01*
X107188750Y-52592840D01*
X107100276Y-52518602D01*
X107051277Y-52500767D01*
X106996886Y-52480970D01*
X106996883Y-52480970D01*
X106991747Y-52479100D01*
X106876253Y-52479100D01*
X106871117Y-52480970D01*
X106871114Y-52480970D01*
X106816723Y-52500767D01*
X106767724Y-52518602D01*
X106763537Y-52522116D01*
X106763536Y-52522116D01*
X106745574Y-52537188D01*
X106699953Y-52551572D01*
X106665226Y-52537188D01*
X106647264Y-52522116D01*
X106647263Y-52522116D01*
X106643076Y-52518602D01*
X106594077Y-52500767D01*
X106539686Y-52480970D01*
X106539683Y-52480970D01*
X106534547Y-52479100D01*
X106419053Y-52479100D01*
X106413917Y-52480970D01*
X106413914Y-52480970D01*
X106359523Y-52500767D01*
X106310524Y-52518602D01*
X106306337Y-52522116D01*
X106306336Y-52522116D01*
X106288374Y-52537188D01*
X106242753Y-52551572D01*
X106208026Y-52537188D01*
X106190064Y-52522116D01*
X106190063Y-52522116D01*
X106185876Y-52518602D01*
X106136877Y-52500767D01*
X106082486Y-52480970D01*
X106082483Y-52480970D01*
X106077347Y-52479100D01*
X105961853Y-52479100D01*
X105956717Y-52480970D01*
X105956714Y-52480970D01*
X105902323Y-52500767D01*
X105853324Y-52518602D01*
X105849137Y-52522116D01*
X105849136Y-52522116D01*
X105831174Y-52537188D01*
X105785553Y-52551572D01*
X105750826Y-52537188D01*
X105732864Y-52522116D01*
X105732863Y-52522116D01*
X105728676Y-52518602D01*
X105679677Y-52500767D01*
X105625286Y-52480970D01*
X105625283Y-52480970D01*
X105620147Y-52479100D01*
X105504653Y-52479100D01*
X105499517Y-52480970D01*
X105499514Y-52480970D01*
X105445123Y-52500767D01*
X105396124Y-52518602D01*
X105307650Y-52592840D01*
X105286984Y-52628635D01*
X105275588Y-52648374D01*
X105249903Y-52692861D01*
X105229848Y-52806600D01*
X82867448Y-52806600D01*
X82901104Y-52697877D01*
X82900224Y-52688402D01*
X82897332Y-52686000D01*
X81743431Y-52686000D01*
X81734641Y-52689641D01*
X81731000Y-52698431D01*
X81223000Y-52698431D01*
X81223000Y-52272500D01*
X81241306Y-52228306D01*
X81285500Y-52210000D01*
X93740696Y-52210000D01*
X93784890Y-52228306D01*
G37*
%TD.AperFunction*%
%TD*%
M02*
