M48
; DRILL file {KiCad (5.99.0-11336-g5116fa6d12)} date Fri Jul 16 02:18:21 2021
; FORMAT={-:-/ absolute / metric / decimal}
; #@! TF.CreationDate,2021-07-16T02:18:21+02:00
; #@! TF.GenerationSoftware,Kicad,Pcbnew,(5.99.0-11336-g5116fa6d12)
; #@! TF.FileFunction,Plated,1,4,PTH
FMAT,2
METRIC
; #@! TA.AperFunction,Plated,PTH,ViaDrill
T1C0.200
; #@! TA.AperFunction,Plated,PTH,ViaDrill
T2C0.300
; #@! TA.AperFunction,Plated,PTH,ViaDrill
T3C0.400
; #@! TA.AperFunction,Plated,PTH,ComponentDrill
T4C0.450
%
G90
G05
T1
X85.014Y-52.883
X85.014Y-57.302
X85.039Y-55.372
X85.039Y-56.007
X85.039Y-56.642
X85.039Y-57.76
X85.446Y-57.302
X85.446Y-57.76
X85.877Y-55.372
X88.189Y-55.016
X88.24Y-54.026
X88.392Y-55.474
X88.504Y-53.518
X88.665Y-54.523
X90.678Y-53.518
X91.427Y-58.369
X92.024Y-56.236
X92.761Y-53.061
X93.015Y-55.169
X94.082Y-52.462
X94.488Y-58.623
X94.578Y-56.947
X95.136Y-55.759
X95.25Y-53.365
X95.529Y-56.896
X95.987Y-53.238
X96.063Y-54.077
X96.164Y-55.423
X96.495Y-58.42
X96.647Y-56.667
X97.18Y-53.569
X97.384Y-54.661
X97.765Y-53.645
X97.968Y-58.801
X97.993Y-56.312
X98.438Y-53.596
X98.501Y-58.268
X98.976Y-58.833
X99.136Y-54.915
X99.314Y-57.277
X99.416Y-53.877
X99.568Y-58.826
X99.72Y-54.788
X99.822Y-57.76
X99.936Y-56.792
X100.0Y-53.797
X101.575Y-58.801
X102.362Y-55.677
X102.413Y-54.254
X102.489Y-57.353
X102.514Y-59.512
X102.946Y-56.693
X103.911Y-57.734
X104.216Y-55.448
X104.39Y-57.734
X104.894Y-57.734
X105.41Y-57.734
X105.562Y-52.807
X105.562Y-53.264
X105.901Y-57.734
X106.02Y-52.807
X106.02Y-53.264
X106.405Y-57.734
X106.477Y-52.807
X106.477Y-53.264
X106.477Y-58.268
X106.477Y-58.82
X106.477Y-59.334
X106.909Y-57.734
X106.934Y-52.807
X106.934Y-53.264
X107.074Y-58.268
X107.074Y-58.82
X107.074Y-59.334
X107.671Y-58.268
X107.671Y-58.82
X107.671Y-59.334
X107.798Y-52.527
X109.042Y-52.553
X109.042Y-53.01
X109.55Y-52.553
X109.55Y-53.01
X110.033Y-52.553
X110.033Y-53.01
X110.49Y-52.553
X110.49Y-53.01
X110.947Y-52.553
X110.947Y-53.01
X113.36Y-53.188
X115.24Y-53.264
X117.907Y-57.861
X117.907Y-52.857
X118.135Y-55.855
X118.364Y-57.861
X118.821Y-57.861
X119.278Y-57.861
X119.736Y-57.861
X119.964Y-58.293
X119.964Y-58.75
X119.964Y-59.233
X120.193Y-57.861
X120.459Y-58.293
X120.472Y-58.763
X120.472Y-59.233
X120.65Y-57.861
X120.955Y-58.293
X120.968Y-58.776
X120.98Y-59.258
X121.463Y-52.857
X126.111Y-52.451
X130.708Y-59.182
X130.912Y-52.883
T2
X89.789Y-55.575
X89.875Y-56.53
X90.348Y-54.102
X91.421Y-57.353
T3
X83.693Y-52.735
X83.718Y-59.309
X85.954Y-58.09
T4
X81.077Y-52.432G85X81.877Y-52.432
G05
X81.877Y-59.582G85X81.077Y-59.582
G05
T0
M30
