%TF.GenerationSoftware,KiCad,Pcbnew,(5.99.0-11336-g5116fa6d12)*%
%TF.CreationDate,2021-07-16T22:42:55+02:00*%
%TF.ProjectId,DCPowerFire,4443506f-7765-4724-9669-72652e6b6963,rev?*%
%TF.SameCoordinates,Original*%
%TF.FileFunction,Copper,L3,Inr*%
%TF.FilePolarity,Positive*%
%FSLAX46Y46*%
G04 Gerber Fmt 4.6, Leading zero omitted, Abs format (unit mm)*
G04 Created by KiCad (PCBNEW (5.99.0-11336-g5116fa6d12)) date 2021-07-16 22:42:55*
%MOMM*%
%LPD*%
G01*
G04 APERTURE LIST*
%TA.AperFunction,ComponentPad*%
%ADD10O,1.900000X1.050000*%
%TD*%
%TA.AperFunction,ViaPad*%
%ADD11C,0.450000*%
%TD*%
%TA.AperFunction,ViaPad*%
%ADD12C,0.600000*%
%TD*%
%TA.AperFunction,ViaPad*%
%ADD13C,0.800000*%
%TD*%
%TA.AperFunction,Conductor*%
%ADD14C,0.088900*%
%TD*%
G04 APERTURE END LIST*
D10*
%TO.N,GND*%
%TO.C,J3*%
X81477000Y-52432000D03*
X81477000Y-59582000D03*
%TD*%
D11*
%TO.N,GND*%
X120726200Y-58928000D03*
X120218200Y-58928000D03*
X121234200Y-58928000D03*
X120726200Y-59436000D03*
X121234200Y-59436000D03*
X120218200Y-59436000D03*
X117678200Y-57912000D03*
X120218200Y-58420000D03*
X119202200Y-57912000D03*
X121234200Y-57912000D03*
X119710200Y-57912000D03*
X118186200Y-57912000D03*
X118694200Y-57912000D03*
X120726200Y-58420000D03*
X121234200Y-58420000D03*
X120726200Y-57912000D03*
X120218200Y-57912000D03*
X103962200Y-58801000D03*
X103962200Y-59309000D03*
X103962200Y-58293000D03*
X107873800Y-59334400D03*
X107365800Y-59334400D03*
X106857800Y-59334400D03*
X107873800Y-58826400D03*
X107365800Y-58826400D03*
X106857800Y-58826400D03*
X107873800Y-58318400D03*
X107365800Y-58318400D03*
X106857800Y-58318400D03*
X107873800Y-57810400D03*
X107365800Y-57810400D03*
X106857800Y-57810400D03*
X106349800Y-57810400D03*
X105841800Y-57810400D03*
X105333800Y-57810400D03*
X104825800Y-57810400D03*
X104317800Y-57810400D03*
%TO.N,+BATT_FUSED*%
X106908600Y-53263800D03*
X106426000Y-53263800D03*
X105943400Y-53263800D03*
X105460800Y-53263800D03*
X106908600Y-52781200D03*
X106426000Y-52781200D03*
X105943400Y-52781200D03*
X105460800Y-52781200D03*
%TO.N,GND*%
X111048800Y-53060600D03*
X110540800Y-53060600D03*
X110032800Y-53060600D03*
X109524800Y-53060600D03*
X109016800Y-53060600D03*
X111048800Y-52552600D03*
X110540800Y-52552600D03*
X110032800Y-52552600D03*
X109524800Y-52552600D03*
X109016800Y-52552600D03*
X95224600Y-55499000D03*
%TO.N,SCK*%
X95808800Y-55448200D03*
%TO.N,GND*%
X85521800Y-58267600D03*
X86004400Y-58267600D03*
X86004400Y-57785000D03*
X85521800Y-57785000D03*
X85039200Y-57785000D03*
X85521800Y-57302400D03*
X85039200Y-57302400D03*
X102412800Y-54254400D03*
D12*
X89789000Y-55575416D03*
D13*
X83718400Y-59309000D03*
D11*
X85877400Y-55372000D03*
X85013800Y-52882800D03*
X95250000Y-53365400D03*
D13*
X83693000Y-52735000D03*
D11*
X102743000Y-59512200D03*
X99568000Y-58826400D03*
X102438200Y-57404000D03*
X92837000Y-53060600D03*
X91427300Y-58369200D03*
X117906802Y-52857400D03*
X104216200Y-55448200D03*
X99999800Y-53797200D03*
D12*
X90347800Y-54102000D03*
D11*
X92989400Y-55168800D03*
%TO.N,+BATT*%
X90678000Y-53517800D03*
X88392000Y-55473600D03*
X88188800Y-55016400D03*
X107797600Y-52527200D03*
%TO.N,+3V3*%
X126111000Y-52451000D03*
X130708400Y-59182000D03*
X102946200Y-56692800D03*
D12*
X91420730Y-57353200D03*
D11*
X101498400Y-58801000D03*
D12*
X89875400Y-56530200D03*
D11*
X130911600Y-52882800D03*
X94081600Y-52462038D03*
%TO.N,USB_DP*%
X85039200Y-56007000D03*
X99720400Y-54787800D03*
%TO.N,USB_ID*%
X85039200Y-56642000D03*
X94488000Y-58623200D03*
%TO.N,USB_DN*%
X99136200Y-54914800D03*
X85039200Y-55372000D03*
%TO.N,NTC1*%
X97383600Y-54660800D03*
X121462800Y-52857400D03*
%TO.N,NRST*%
X92202000Y-56210200D03*
%TO.N,SWD*%
X99415600Y-53876600D03*
%TO.N,Coil_1*%
X118135400Y-55854600D03*
X99936071Y-56792471D03*
%TO.N,R_1*%
X97764600Y-53644800D03*
%TO.N,G_1*%
X97180400Y-53568600D03*
%TO.N,B_1*%
X98437597Y-53596376D03*
%TO.N,R_2*%
X97967800Y-58801000D03*
%TO.N,G_2*%
X98976102Y-58833368D03*
%TO.N,B_2*%
X98501200Y-58267600D03*
%TO.N,Net-(R15-Pad2)*%
X113360196Y-53187604D03*
X96240600Y-53898800D03*
%TO.N,Net-(R15-Pad1)*%
X115239800Y-53263800D03*
%TO.N,Charge*%
X88664740Y-54522545D03*
X95986600Y-53238400D03*
%TO.N,NTC2*%
X102489000Y-55626000D03*
X97993200Y-56311800D03*
%TO.N,WP*%
X99314000Y-57277000D03*
%TO.N,RST*%
X99822000Y-57759598D03*
%TO.N,MOSI*%
X96494600Y-58445400D03*
%TO.N,MISO*%
X96647000Y-56667400D03*
%TO.N,CLK*%
X95732600Y-56870600D03*
%TO.N,CS*%
X96748600Y-55702200D03*
%TO.N,+BATT_FUSED*%
X88239600Y-54025800D03*
X88503800Y-53517800D03*
%TD*%
D14*
%TO.N,USB_DP*%
X99847400Y-55956050D02*
X99847400Y-54762400D01*
X93929200Y-58025820D02*
X97777631Y-58025819D01*
X92760800Y-56857420D02*
X93929200Y-58025820D01*
X85039200Y-56007000D02*
X85369550Y-56007000D01*
X90564030Y-56857420D02*
X92760800Y-56857420D01*
X85369550Y-56007000D02*
X86880371Y-57517820D01*
X97777631Y-58025819D02*
X99847400Y-55956050D01*
X86880371Y-57517820D02*
X89903629Y-57517820D01*
X89903629Y-57517820D02*
X90564030Y-56857420D01*
%TO.N,USB_ID*%
X94488000Y-58623200D02*
X94222105Y-58357305D01*
X86918800Y-57861200D02*
X85699600Y-56642000D01*
X93956035Y-58357305D02*
X93459930Y-57861200D01*
X93459930Y-57861200D02*
X86918800Y-57861200D01*
X94222105Y-58357305D02*
X93956035Y-58357305D01*
X85699600Y-56642000D02*
X85039200Y-56642000D01*
%TO.N,USB_DN*%
X89814400Y-57302400D02*
X90474800Y-56642000D01*
X99263200Y-55041800D02*
X99136200Y-54914800D01*
X99263200Y-56235600D02*
X99263200Y-55041800D01*
X86969600Y-57302400D02*
X89814400Y-57302400D01*
X97688400Y-57810400D02*
X99263200Y-56235600D01*
X92964000Y-56642000D02*
X94132400Y-57810400D01*
X94132400Y-57810400D02*
X97688400Y-57810400D01*
X85039200Y-55372000D02*
X86969600Y-57302400D01*
X90474800Y-56642000D02*
X92964000Y-56642000D01*
%TD*%
%TA.AperFunction,Conductor*%
%TO.N,GND*%
G36*
X93756604Y-52228306D02*
G01*
X93774910Y-52272500D01*
X93768099Y-52300871D01*
X93742174Y-52351752D01*
X93724706Y-52462038D01*
X93742174Y-52572324D01*
X93792867Y-52671815D01*
X93871823Y-52750771D01*
X93971314Y-52801464D01*
X94081600Y-52818932D01*
X94191886Y-52801464D01*
X94231656Y-52781200D01*
X105103906Y-52781200D01*
X105121374Y-52891486D01*
X105165367Y-52977827D01*
X105172067Y-52990977D01*
X105170655Y-52991697D01*
X105180398Y-53032276D01*
X105171508Y-53053738D01*
X105172067Y-53054023D01*
X105121374Y-53153514D01*
X105103906Y-53263800D01*
X105121374Y-53374086D01*
X105172067Y-53473577D01*
X105251023Y-53552533D01*
X105350514Y-53603226D01*
X105460800Y-53620694D01*
X105571086Y-53603226D01*
X105670577Y-53552533D01*
X105671297Y-53553945D01*
X105711876Y-53544202D01*
X105733338Y-53553092D01*
X105733623Y-53552533D01*
X105833114Y-53603226D01*
X105943400Y-53620694D01*
X106053686Y-53603226D01*
X106153177Y-53552533D01*
X106153897Y-53553945D01*
X106194476Y-53544202D01*
X106215938Y-53553092D01*
X106216223Y-53552533D01*
X106315714Y-53603226D01*
X106426000Y-53620694D01*
X106536286Y-53603226D01*
X106635777Y-53552533D01*
X106636497Y-53553945D01*
X106677076Y-53544202D01*
X106698538Y-53553092D01*
X106698823Y-53552533D01*
X106798314Y-53603226D01*
X106908600Y-53620694D01*
X107018886Y-53603226D01*
X107118377Y-53552533D01*
X107197333Y-53473577D01*
X107248026Y-53374086D01*
X107265494Y-53263800D01*
X107253425Y-53187604D01*
X113003302Y-53187604D01*
X113020770Y-53297890D01*
X113071463Y-53397381D01*
X113150419Y-53476337D01*
X113249910Y-53527030D01*
X113360196Y-53544498D01*
X113470482Y-53527030D01*
X113569973Y-53476337D01*
X113648929Y-53397381D01*
X113699622Y-53297890D01*
X113705021Y-53263800D01*
X114882906Y-53263800D01*
X114900374Y-53374086D01*
X114951067Y-53473577D01*
X115030023Y-53552533D01*
X115129514Y-53603226D01*
X115239800Y-53620694D01*
X115350086Y-53603226D01*
X115449577Y-53552533D01*
X115528533Y-53473577D01*
X115579226Y-53374086D01*
X115596694Y-53263800D01*
X115579226Y-53153514D01*
X115528533Y-53054023D01*
X115449577Y-52975067D01*
X115350086Y-52924374D01*
X115239800Y-52906906D01*
X115129514Y-52924374D01*
X115030023Y-52975067D01*
X114951067Y-53054023D01*
X114900374Y-53153514D01*
X114882906Y-53263800D01*
X113705021Y-53263800D01*
X113717090Y-53187604D01*
X113699622Y-53077318D01*
X113648929Y-52977827D01*
X113569973Y-52898871D01*
X113488581Y-52857400D01*
X121105906Y-52857400D01*
X121123374Y-52967686D01*
X121174067Y-53067177D01*
X121253023Y-53146133D01*
X121352514Y-53196826D01*
X121462800Y-53214294D01*
X121573086Y-53196826D01*
X121672577Y-53146133D01*
X121751533Y-53067177D01*
X121802226Y-52967686D01*
X121815671Y-52882800D01*
X130554706Y-52882800D01*
X130572174Y-52993086D01*
X130622867Y-53092577D01*
X130701823Y-53171533D01*
X130801314Y-53222226D01*
X130911600Y-53239694D01*
X131021886Y-53222226D01*
X131121377Y-53171533D01*
X131200333Y-53092577D01*
X131251026Y-52993086D01*
X131268494Y-52882800D01*
X131251026Y-52772514D01*
X131200333Y-52673023D01*
X131121377Y-52594067D01*
X131021886Y-52543374D01*
X130911600Y-52525906D01*
X130801314Y-52543374D01*
X130701823Y-52594067D01*
X130622867Y-52673023D01*
X130572174Y-52772514D01*
X130554706Y-52882800D01*
X121815671Y-52882800D01*
X121819694Y-52857400D01*
X121802226Y-52747114D01*
X121751533Y-52647623D01*
X121672577Y-52568667D01*
X121573086Y-52517974D01*
X121462800Y-52500506D01*
X121352514Y-52517974D01*
X121253023Y-52568667D01*
X121174067Y-52647623D01*
X121123374Y-52747114D01*
X121105906Y-52857400D01*
X113488581Y-52857400D01*
X113470482Y-52848178D01*
X113360196Y-52830710D01*
X113249910Y-52848178D01*
X113150419Y-52898871D01*
X113071463Y-52977827D01*
X113020770Y-53077318D01*
X113003302Y-53187604D01*
X107253425Y-53187604D01*
X107248026Y-53153514D01*
X107197333Y-53054023D01*
X107198745Y-53053303D01*
X107189002Y-53012724D01*
X107197892Y-52991262D01*
X107197333Y-52990977D01*
X107204033Y-52977827D01*
X107248026Y-52891486D01*
X107265494Y-52781200D01*
X107248026Y-52670914D01*
X107197333Y-52571423D01*
X107118377Y-52492467D01*
X107018886Y-52441774D01*
X106908600Y-52424306D01*
X106798314Y-52441774D01*
X106698823Y-52492467D01*
X106698103Y-52491055D01*
X106657524Y-52500798D01*
X106636062Y-52491908D01*
X106635777Y-52492467D01*
X106554393Y-52451000D01*
X106536286Y-52441774D01*
X106426000Y-52424306D01*
X106315714Y-52441774D01*
X106216223Y-52492467D01*
X106215503Y-52491055D01*
X106174924Y-52500798D01*
X106153462Y-52491908D01*
X106153177Y-52492467D01*
X106071793Y-52451000D01*
X106053686Y-52441774D01*
X105943400Y-52424306D01*
X105833114Y-52441774D01*
X105733623Y-52492467D01*
X105732903Y-52491055D01*
X105692324Y-52500798D01*
X105670862Y-52491908D01*
X105670577Y-52492467D01*
X105589193Y-52451000D01*
X105571086Y-52441774D01*
X105460800Y-52424306D01*
X105350514Y-52441774D01*
X105251023Y-52492467D01*
X105172067Y-52571423D01*
X105121374Y-52670914D01*
X105103906Y-52781200D01*
X94231656Y-52781200D01*
X94291377Y-52750771D01*
X94370333Y-52671815D01*
X94421026Y-52572324D01*
X94438494Y-52462038D01*
X94421026Y-52351752D01*
X94395102Y-52300873D01*
X94391349Y-52253187D01*
X94422415Y-52216812D01*
X94450790Y-52210000D01*
X107465402Y-52210000D01*
X107509596Y-52228306D01*
X107527902Y-52272500D01*
X107513043Y-52308373D01*
X107515236Y-52309966D01*
X107512346Y-52313944D01*
X107508867Y-52317423D01*
X107458174Y-52416914D01*
X107440706Y-52527200D01*
X107458174Y-52637486D01*
X107508867Y-52736977D01*
X107587823Y-52815933D01*
X107687314Y-52866626D01*
X107797600Y-52884094D01*
X107907886Y-52866626D01*
X108007377Y-52815933D01*
X108086333Y-52736977D01*
X108137026Y-52637486D01*
X108154494Y-52527200D01*
X108137026Y-52416914D01*
X108086333Y-52317423D01*
X108082854Y-52313944D01*
X108079964Y-52309966D01*
X108082157Y-52308373D01*
X108067298Y-52272500D01*
X108085604Y-52228306D01*
X108129798Y-52210000D01*
X125736185Y-52210000D01*
X125780379Y-52228306D01*
X125798685Y-52272500D01*
X125791873Y-52300874D01*
X125788052Y-52308373D01*
X125771574Y-52340714D01*
X125754106Y-52451000D01*
X125771574Y-52561286D01*
X125822267Y-52660777D01*
X125901223Y-52739733D01*
X126000714Y-52790426D01*
X126111000Y-52807894D01*
X126221286Y-52790426D01*
X126320777Y-52739733D01*
X126399733Y-52660777D01*
X126450426Y-52561286D01*
X126467894Y-52451000D01*
X126450426Y-52340714D01*
X126433948Y-52308373D01*
X126430127Y-52300874D01*
X126426374Y-52253186D01*
X126457441Y-52216812D01*
X126485815Y-52210000D01*
X131437500Y-52210000D01*
X131481694Y-52228306D01*
X131500000Y-52272500D01*
X131500000Y-59787500D01*
X131481694Y-59831694D01*
X131437500Y-59850000D01*
X92866119Y-59850000D01*
X92821925Y-59831694D01*
X92803619Y-59787500D01*
X92825528Y-59739975D01*
X92889546Y-59685298D01*
X92892408Y-59682854D01*
X92894603Y-59679799D01*
X92894606Y-59679796D01*
X92978172Y-59563502D01*
X92978173Y-59563500D01*
X92980372Y-59560440D01*
X93036597Y-59420576D01*
X93057836Y-59271339D01*
X93057974Y-59258200D01*
X93057729Y-59256179D01*
X93057729Y-59256171D01*
X93040317Y-59112295D01*
X93039864Y-59108550D01*
X93037457Y-59102178D01*
X92987913Y-58971065D01*
X92986581Y-58967540D01*
X92901200Y-58843310D01*
X92788651Y-58743032D01*
X92781624Y-58739311D01*
X92710760Y-58701791D01*
X92655431Y-58672496D01*
X92509231Y-58635773D01*
X92505466Y-58635753D01*
X92505464Y-58635753D01*
X92431111Y-58635364D01*
X92358491Y-58634984D01*
X92354827Y-58635864D01*
X92354824Y-58635864D01*
X92292638Y-58650794D01*
X92211915Y-58670174D01*
X92208573Y-58671899D01*
X92208570Y-58671900D01*
X92188603Y-58682206D01*
X92077964Y-58739311D01*
X92075126Y-58741786D01*
X92075127Y-58741786D01*
X91975617Y-58828594D01*
X91964370Y-58838405D01*
X91962204Y-58841487D01*
X91962203Y-58841488D01*
X91936489Y-58878076D01*
X91877693Y-58961734D01*
X91876324Y-58965245D01*
X91876323Y-58965247D01*
X91826918Y-59091966D01*
X91822936Y-59102178D01*
X91803260Y-59251630D01*
X91819802Y-59401461D01*
X91871606Y-59543022D01*
X91955681Y-59668139D01*
X91958468Y-59670675D01*
X92036054Y-59741273D01*
X92056422Y-59784556D01*
X92040218Y-59829563D01*
X91993991Y-59850000D01*
X90834119Y-59850000D01*
X90789925Y-59831694D01*
X90771619Y-59787500D01*
X90793528Y-59739975D01*
X90857546Y-59685298D01*
X90860408Y-59682854D01*
X90862603Y-59679799D01*
X90862606Y-59679796D01*
X90946172Y-59563502D01*
X90946173Y-59563500D01*
X90948372Y-59560440D01*
X91004597Y-59420576D01*
X91025836Y-59271339D01*
X91025974Y-59258200D01*
X91025729Y-59256179D01*
X91025729Y-59256171D01*
X91008317Y-59112295D01*
X91007864Y-59108550D01*
X91005457Y-59102178D01*
X90955913Y-58971065D01*
X90954581Y-58967540D01*
X90869200Y-58843310D01*
X90756651Y-58743032D01*
X90749624Y-58739311D01*
X90678760Y-58701791D01*
X90623431Y-58672496D01*
X90477231Y-58635773D01*
X90473466Y-58635753D01*
X90473464Y-58635753D01*
X90399111Y-58635364D01*
X90326491Y-58634984D01*
X90322827Y-58635864D01*
X90322824Y-58635864D01*
X90260638Y-58650794D01*
X90179915Y-58670174D01*
X90176573Y-58671899D01*
X90176570Y-58671900D01*
X90156603Y-58682206D01*
X90045964Y-58739311D01*
X90043126Y-58741786D01*
X90043127Y-58741786D01*
X89943617Y-58828594D01*
X89932370Y-58838405D01*
X89930204Y-58841487D01*
X89930203Y-58841488D01*
X89904489Y-58878076D01*
X89845693Y-58961734D01*
X89844324Y-58965245D01*
X89844323Y-58965247D01*
X89794918Y-59091966D01*
X89790936Y-59102178D01*
X89771260Y-59251630D01*
X89787802Y-59401461D01*
X89839606Y-59543022D01*
X89923681Y-59668139D01*
X89926468Y-59670675D01*
X90004054Y-59741273D01*
X90024422Y-59784556D01*
X90008218Y-59829563D01*
X89961991Y-59850000D01*
X82936759Y-59850000D01*
X82897979Y-59836000D01*
X81285500Y-59836000D01*
X81241306Y-59817694D01*
X81223000Y-59773500D01*
X81223000Y-58561431D01*
X81731000Y-58561431D01*
X81731000Y-59315569D01*
X81734641Y-59324359D01*
X81743431Y-59328000D01*
X82891670Y-59328000D01*
X82900460Y-59324359D01*
X82901962Y-59320732D01*
X82865279Y-59196095D01*
X82862998Y-59190449D01*
X82771975Y-59016336D01*
X82768645Y-59011248D01*
X82645536Y-58858132D01*
X82641281Y-58853788D01*
X82490781Y-58727503D01*
X82485751Y-58724059D01*
X82313591Y-58629412D01*
X82307994Y-58627014D01*
X82120727Y-58567610D01*
X82114773Y-58566344D01*
X81961886Y-58549195D01*
X81958408Y-58549000D01*
X81743431Y-58549000D01*
X81734641Y-58552641D01*
X81731000Y-58561431D01*
X81223000Y-58561431D01*
X81219359Y-58552641D01*
X81210569Y-58549000D01*
X81002563Y-58549000D01*
X80999503Y-58549150D01*
X80853426Y-58563473D01*
X80847461Y-58564654D01*
X80659372Y-58621441D01*
X80653753Y-58623757D01*
X80480279Y-58715994D01*
X80475214Y-58719360D01*
X80322960Y-58843535D01*
X80318642Y-58847823D01*
X80260657Y-58917915D01*
X80218382Y-58940299D01*
X80172661Y-58926233D01*
X80150277Y-58883958D01*
X80150000Y-58878076D01*
X80150000Y-55372000D01*
X84682306Y-55372000D01*
X84699774Y-55482286D01*
X84750467Y-55581777D01*
X84813996Y-55645306D01*
X84832302Y-55689500D01*
X84813996Y-55733694D01*
X84750467Y-55797223D01*
X84699774Y-55896714D01*
X84682306Y-56007000D01*
X84699774Y-56117286D01*
X84750467Y-56216777D01*
X84813996Y-56280306D01*
X84832302Y-56324500D01*
X84813996Y-56368694D01*
X84750467Y-56432223D01*
X84699774Y-56531714D01*
X84682306Y-56642000D01*
X84699774Y-56752286D01*
X84750467Y-56851777D01*
X84829423Y-56930733D01*
X84928914Y-56981426D01*
X85039200Y-56998894D01*
X85149486Y-56981426D01*
X85248977Y-56930733D01*
X85327933Y-56851777D01*
X85330164Y-56847398D01*
X85333059Y-56843414D01*
X85334258Y-56844285D01*
X85366190Y-56817010D01*
X85385507Y-56813950D01*
X85602488Y-56813950D01*
X85646682Y-56832256D01*
X86781416Y-57966990D01*
X86788909Y-57976047D01*
X86800300Y-57992808D01*
X86806967Y-57996383D01*
X86806968Y-57996384D01*
X86832110Y-58009865D01*
X86834951Y-58011485D01*
X86865841Y-58030192D01*
X86870577Y-58030490D01*
X86874758Y-58032732D01*
X86878067Y-58033150D01*
X86910888Y-58033150D01*
X86914812Y-58033273D01*
X86950161Y-58035497D01*
X86954639Y-58033503D01*
X86958596Y-58033150D01*
X93362818Y-58033150D01*
X93407012Y-58051456D01*
X93818651Y-58463095D01*
X93826144Y-58472152D01*
X93837535Y-58488913D01*
X93844202Y-58492488D01*
X93844203Y-58492489D01*
X93869345Y-58505970D01*
X93872186Y-58507590D01*
X93903076Y-58526297D01*
X93907812Y-58526595D01*
X93911993Y-58528837D01*
X93915302Y-58529255D01*
X93948123Y-58529255D01*
X93952047Y-58529378D01*
X93987396Y-58531602D01*
X93991874Y-58529608D01*
X93995831Y-58529255D01*
X94072808Y-58529255D01*
X94117002Y-58547561D01*
X94135308Y-58591755D01*
X94134538Y-58601531D01*
X94131106Y-58623200D01*
X94148574Y-58733486D01*
X94199267Y-58832977D01*
X94278223Y-58911933D01*
X94377714Y-58962626D01*
X94488000Y-58980094D01*
X94598286Y-58962626D01*
X94697777Y-58911933D01*
X94776733Y-58832977D01*
X94827426Y-58733486D01*
X94844894Y-58623200D01*
X94827426Y-58512914D01*
X94776733Y-58413423D01*
X94697777Y-58334467D01*
X94661451Y-58315958D01*
X94630384Y-58279584D01*
X94634137Y-58231896D01*
X94670511Y-58200829D01*
X94689825Y-58197770D01*
X95790668Y-58197769D01*
X96123164Y-58197769D01*
X96167358Y-58216075D01*
X96185664Y-58260269D01*
X96178852Y-58288643D01*
X96155174Y-58335114D01*
X96137706Y-58445400D01*
X96155174Y-58555686D01*
X96205867Y-58655177D01*
X96284823Y-58734133D01*
X96384314Y-58784826D01*
X96494600Y-58802294D01*
X96502770Y-58801000D01*
X97610906Y-58801000D01*
X97628374Y-58911286D01*
X97679067Y-59010777D01*
X97758023Y-59089733D01*
X97857514Y-59140426D01*
X97967800Y-59157894D01*
X98078086Y-59140426D01*
X98177577Y-59089733D01*
X98256533Y-59010777D01*
X98307226Y-58911286D01*
X98324694Y-58801000D01*
X98307226Y-58690714D01*
X98304991Y-58686327D01*
X98303652Y-58682206D01*
X98307407Y-58634518D01*
X98343782Y-58603452D01*
X98382406Y-58603452D01*
X98386527Y-58604791D01*
X98390914Y-58607026D01*
X98501200Y-58624494D01*
X98506061Y-58623724D01*
X98506062Y-58623724D01*
X98582059Y-58611687D01*
X98628572Y-58622853D01*
X98653566Y-58663640D01*
X98647524Y-58701791D01*
X98640288Y-58715994D01*
X98636676Y-58723082D01*
X98619208Y-58833368D01*
X98636676Y-58943654D01*
X98687369Y-59043145D01*
X98766325Y-59122101D01*
X98865816Y-59172794D01*
X98976102Y-59190262D01*
X99028265Y-59182000D01*
X130351506Y-59182000D01*
X130368974Y-59292286D01*
X130419667Y-59391777D01*
X130498623Y-59470733D01*
X130598114Y-59521426D01*
X130708400Y-59538894D01*
X130818686Y-59521426D01*
X130918177Y-59470733D01*
X130997133Y-59391777D01*
X131047826Y-59292286D01*
X131065294Y-59182000D01*
X131047826Y-59071714D01*
X130997133Y-58972223D01*
X130918177Y-58893267D01*
X130818686Y-58842574D01*
X130708400Y-58825106D01*
X130598114Y-58842574D01*
X130498623Y-58893267D01*
X130419667Y-58972223D01*
X130368974Y-59071714D01*
X130351506Y-59182000D01*
X99028265Y-59182000D01*
X99086388Y-59172794D01*
X99185879Y-59122101D01*
X99264835Y-59043145D01*
X99315528Y-58943654D01*
X99332996Y-58833368D01*
X99327869Y-58801000D01*
X101141506Y-58801000D01*
X101158974Y-58911286D01*
X101209667Y-59010777D01*
X101288623Y-59089733D01*
X101388114Y-59140426D01*
X101498400Y-59157894D01*
X101608686Y-59140426D01*
X101708177Y-59089733D01*
X101787133Y-59010777D01*
X101837826Y-58911286D01*
X101855294Y-58801000D01*
X101837826Y-58690714D01*
X101787133Y-58591223D01*
X101708177Y-58512267D01*
X101608686Y-58461574D01*
X101498400Y-58444106D01*
X101388114Y-58461574D01*
X101288623Y-58512267D01*
X101209667Y-58591223D01*
X101158974Y-58690714D01*
X101141506Y-58801000D01*
X99327869Y-58801000D01*
X99315528Y-58723082D01*
X99264835Y-58623591D01*
X99185879Y-58544635D01*
X99086388Y-58493942D01*
X98976102Y-58476474D01*
X98971241Y-58477244D01*
X98971240Y-58477244D01*
X98895243Y-58489281D01*
X98848730Y-58478115D01*
X98823736Y-58437328D01*
X98829778Y-58399177D01*
X98838391Y-58382273D01*
X98838391Y-58382271D01*
X98840626Y-58377886D01*
X98858094Y-58267600D01*
X98840626Y-58157314D01*
X98789933Y-58057823D01*
X98710977Y-57978867D01*
X98611486Y-57928174D01*
X98501200Y-57910706D01*
X98390914Y-57928174D01*
X98291423Y-57978867D01*
X98212467Y-58057823D01*
X98161774Y-58157314D01*
X98144306Y-58267600D01*
X98161774Y-58377886D01*
X98164009Y-58382273D01*
X98165348Y-58386394D01*
X98161593Y-58434082D01*
X98125218Y-58465148D01*
X98086594Y-58465148D01*
X98082473Y-58463809D01*
X98078086Y-58461574D01*
X97967800Y-58444106D01*
X97857514Y-58461574D01*
X97758023Y-58512267D01*
X97679067Y-58591223D01*
X97628374Y-58690714D01*
X97610906Y-58801000D01*
X96502770Y-58801000D01*
X96604886Y-58784826D01*
X96704377Y-58734133D01*
X96783333Y-58655177D01*
X96834026Y-58555686D01*
X96851494Y-58445400D01*
X96834026Y-58335114D01*
X96810348Y-58288643D01*
X96806595Y-58240955D01*
X96837662Y-58204581D01*
X96866036Y-58197769D01*
X97755289Y-58197769D01*
X97767000Y-58198876D01*
X97786900Y-58202672D01*
X97794137Y-58200487D01*
X97794138Y-58200487D01*
X97808550Y-58196136D01*
X97821469Y-58192235D01*
X97824611Y-58191376D01*
X97859679Y-58182762D01*
X97863238Y-58179624D01*
X97867780Y-58178253D01*
X97870415Y-58176209D01*
X97893623Y-58153001D01*
X97896485Y-58150313D01*
X97917379Y-58131893D01*
X97917380Y-58131891D01*
X97923053Y-58126890D01*
X97924810Y-58122313D01*
X97927358Y-58119266D01*
X98856374Y-57190250D01*
X98900568Y-57171944D01*
X98944762Y-57190250D01*
X98963068Y-57234444D01*
X98962298Y-57244218D01*
X98957106Y-57277000D01*
X98974574Y-57387286D01*
X99025267Y-57486777D01*
X99104223Y-57565733D01*
X99203714Y-57616426D01*
X99314000Y-57633894D01*
X99404453Y-57619567D01*
X99450965Y-57630733D01*
X99475959Y-57671519D01*
X99475960Y-57691070D01*
X99465106Y-57759598D01*
X99482574Y-57869884D01*
X99533267Y-57969375D01*
X99612223Y-58048331D01*
X99711714Y-58099024D01*
X99822000Y-58116492D01*
X99932286Y-58099024D01*
X100031777Y-58048331D01*
X100110733Y-57969375D01*
X100161426Y-57869884D01*
X100178894Y-57759598D01*
X100161426Y-57649312D01*
X100110733Y-57549821D01*
X100031777Y-57470865D01*
X99932286Y-57420172D01*
X99822000Y-57402704D01*
X99731547Y-57417031D01*
X99685035Y-57405865D01*
X99660041Y-57365079D01*
X99660040Y-57345528D01*
X99670894Y-57277000D01*
X99653426Y-57166714D01*
X99651339Y-57162619D01*
X99655084Y-57115064D01*
X99691459Y-57083998D01*
X99739145Y-57087752D01*
X99825785Y-57131897D01*
X99936071Y-57149365D01*
X100046357Y-57131897D01*
X100145848Y-57081204D01*
X100224804Y-57002248D01*
X100275497Y-56902757D01*
X100292965Y-56792471D01*
X100277178Y-56692800D01*
X102589306Y-56692800D01*
X102606774Y-56803086D01*
X102657467Y-56902577D01*
X102736423Y-56981533D01*
X102835914Y-57032226D01*
X102946200Y-57049694D01*
X103056486Y-57032226D01*
X103155977Y-56981533D01*
X103234933Y-56902577D01*
X103285626Y-56803086D01*
X103303094Y-56692800D01*
X103285626Y-56582514D01*
X103234933Y-56483023D01*
X103155977Y-56404067D01*
X103056486Y-56353374D01*
X102946200Y-56335906D01*
X102835914Y-56353374D01*
X102736423Y-56404067D01*
X102657467Y-56483023D01*
X102606774Y-56582514D01*
X102589306Y-56692800D01*
X100277178Y-56692800D01*
X100275497Y-56682185D01*
X100224804Y-56582694D01*
X100145848Y-56503738D01*
X100046357Y-56453045D01*
X99936071Y-56435577D01*
X99825785Y-56453045D01*
X99726294Y-56503738D01*
X99647338Y-56582694D01*
X99596645Y-56682185D01*
X99579177Y-56792471D01*
X99596645Y-56902757D01*
X99598732Y-56906852D01*
X99594987Y-56954407D01*
X99558612Y-56985473D01*
X99510926Y-56981719D01*
X99483698Y-56967846D01*
X99424286Y-56937574D01*
X99314000Y-56920106D01*
X99281221Y-56925298D01*
X99234708Y-56914132D01*
X99209714Y-56873346D01*
X99220880Y-56826832D01*
X99227250Y-56819374D01*
X99953190Y-56093434D01*
X99962247Y-56085941D01*
X99979008Y-56074550D01*
X99982583Y-56067883D01*
X99982584Y-56067882D01*
X99996065Y-56042740D01*
X99997685Y-56039899D01*
X100012476Y-56015475D01*
X100016392Y-56009009D01*
X100016690Y-56004273D01*
X100018932Y-56000092D01*
X100019350Y-55996783D01*
X100019350Y-55963962D01*
X100019473Y-55960038D01*
X100021222Y-55932236D01*
X100021697Y-55924689D01*
X100019703Y-55920211D01*
X100019350Y-55916254D01*
X100019350Y-55626000D01*
X102132106Y-55626000D01*
X102149574Y-55736286D01*
X102200267Y-55835777D01*
X102279223Y-55914733D01*
X102378714Y-55965426D01*
X102489000Y-55982894D01*
X102599286Y-55965426D01*
X102698777Y-55914733D01*
X102758910Y-55854600D01*
X117778506Y-55854600D01*
X117795974Y-55964886D01*
X117846667Y-56064377D01*
X117925623Y-56143333D01*
X118025114Y-56194026D01*
X118135400Y-56211494D01*
X118245686Y-56194026D01*
X118345177Y-56143333D01*
X118424133Y-56064377D01*
X118474826Y-55964886D01*
X118492294Y-55854600D01*
X118474826Y-55744314D01*
X118424133Y-55644823D01*
X118345177Y-55565867D01*
X118245686Y-55515174D01*
X118135400Y-55497706D01*
X118025114Y-55515174D01*
X117925623Y-55565867D01*
X117846667Y-55644823D01*
X117795974Y-55744314D01*
X117778506Y-55854600D01*
X102758910Y-55854600D01*
X102777733Y-55835777D01*
X102828426Y-55736286D01*
X102845894Y-55626000D01*
X102828426Y-55515714D01*
X102777733Y-55416223D01*
X102698777Y-55337267D01*
X102599286Y-55286574D01*
X102489000Y-55269106D01*
X102378714Y-55286574D01*
X102279223Y-55337267D01*
X102200267Y-55416223D01*
X102149574Y-55515714D01*
X102132106Y-55626000D01*
X100019350Y-55626000D01*
X100019350Y-54992530D01*
X100026162Y-54964156D01*
X100053257Y-54910978D01*
X100059826Y-54898086D01*
X100077294Y-54787800D01*
X100059826Y-54677514D01*
X100009133Y-54578023D01*
X99930177Y-54499067D01*
X99830686Y-54448374D01*
X99720400Y-54430906D01*
X99610114Y-54448374D01*
X99510623Y-54499067D01*
X99431667Y-54578023D01*
X99426513Y-54588139D01*
X99422946Y-54595139D01*
X99386572Y-54626206D01*
X99338884Y-54622453D01*
X99305215Y-54605298D01*
X99246486Y-54575374D01*
X99136200Y-54557906D01*
X99025914Y-54575374D01*
X98926423Y-54626067D01*
X98847467Y-54705023D01*
X98796774Y-54804514D01*
X98779306Y-54914800D01*
X98796774Y-55025086D01*
X98847467Y-55124577D01*
X98926423Y-55203533D01*
X98970865Y-55226177D01*
X99021529Y-55251992D01*
X99021530Y-55251992D01*
X99025914Y-55254226D01*
X99030774Y-55254996D01*
X99030778Y-55254997D01*
X99038529Y-55256225D01*
X99079314Y-55281220D01*
X99091250Y-55317955D01*
X99091250Y-56138488D01*
X99072944Y-56182682D01*
X97635482Y-57620144D01*
X97591288Y-57638450D01*
X94229513Y-57638450D01*
X94185319Y-57620144D01*
X93435774Y-56870600D01*
X95375706Y-56870600D01*
X95393174Y-56980886D01*
X95443867Y-57080377D01*
X95522823Y-57159333D01*
X95622314Y-57210026D01*
X95732600Y-57227494D01*
X95842886Y-57210026D01*
X95942377Y-57159333D01*
X96021333Y-57080377D01*
X96072026Y-56980886D01*
X96089494Y-56870600D01*
X96072026Y-56760314D01*
X96024684Y-56667400D01*
X96290106Y-56667400D01*
X96307574Y-56777686D01*
X96358267Y-56877177D01*
X96437223Y-56956133D01*
X96536714Y-57006826D01*
X96647000Y-57024294D01*
X96757286Y-57006826D01*
X96856777Y-56956133D01*
X96935733Y-56877177D01*
X96986426Y-56777686D01*
X97003894Y-56667400D01*
X96986426Y-56557114D01*
X96935733Y-56457623D01*
X96856777Y-56378667D01*
X96757286Y-56327974D01*
X96655170Y-56311800D01*
X97636306Y-56311800D01*
X97653774Y-56422086D01*
X97704467Y-56521577D01*
X97783423Y-56600533D01*
X97882914Y-56651226D01*
X97993200Y-56668694D01*
X98103486Y-56651226D01*
X98202977Y-56600533D01*
X98281933Y-56521577D01*
X98332626Y-56422086D01*
X98350094Y-56311800D01*
X98332626Y-56201514D01*
X98281933Y-56102023D01*
X98202977Y-56023067D01*
X98103486Y-55972374D01*
X97993200Y-55954906D01*
X97882914Y-55972374D01*
X97783423Y-56023067D01*
X97704467Y-56102023D01*
X97653774Y-56201514D01*
X97636306Y-56311800D01*
X96655170Y-56311800D01*
X96647000Y-56310506D01*
X96536714Y-56327974D01*
X96437223Y-56378667D01*
X96358267Y-56457623D01*
X96307574Y-56557114D01*
X96290106Y-56667400D01*
X96024684Y-56667400D01*
X96021333Y-56660823D01*
X95942377Y-56581867D01*
X95842886Y-56531174D01*
X95732600Y-56513706D01*
X95622314Y-56531174D01*
X95522823Y-56581867D01*
X95443867Y-56660823D01*
X95393174Y-56760314D01*
X95375706Y-56870600D01*
X93435774Y-56870600D01*
X93101384Y-56536210D01*
X93093891Y-56527153D01*
X93082500Y-56510392D01*
X93050663Y-56493321D01*
X93047850Y-56491716D01*
X93040734Y-56487406D01*
X93035798Y-56484417D01*
X93023426Y-56476924D01*
X93023424Y-56476924D01*
X93016959Y-56473008D01*
X93012223Y-56472710D01*
X93008042Y-56470468D01*
X93004733Y-56470050D01*
X92971912Y-56470050D01*
X92967988Y-56469927D01*
X92967974Y-56469926D01*
X92932639Y-56467703D01*
X92928161Y-56469696D01*
X92924201Y-56470050D01*
X92567210Y-56470050D01*
X92523016Y-56451744D01*
X92504710Y-56407550D01*
X92511522Y-56379176D01*
X92536472Y-56330209D01*
X92541426Y-56320486D01*
X92558894Y-56210200D01*
X92541426Y-56099914D01*
X92490733Y-56000423D01*
X92411777Y-55921467D01*
X92312286Y-55870774D01*
X92202000Y-55853306D01*
X92091714Y-55870774D01*
X91992223Y-55921467D01*
X91913267Y-56000423D01*
X91862574Y-56099914D01*
X91845106Y-56210200D01*
X91862574Y-56320486D01*
X91867528Y-56330209D01*
X91892478Y-56379176D01*
X91896231Y-56426864D01*
X91865164Y-56463238D01*
X91836790Y-56470050D01*
X90497144Y-56470050D01*
X90485434Y-56468943D01*
X90472962Y-56466564D01*
X90472961Y-56466564D01*
X90465532Y-56465147D01*
X90455493Y-56468178D01*
X90430980Y-56475579D01*
X90427823Y-56476443D01*
X90400099Y-56483252D01*
X90400097Y-56483253D01*
X90392752Y-56485057D01*
X90389193Y-56488195D01*
X90384651Y-56489566D01*
X90383440Y-56490506D01*
X90337769Y-56494341D01*
X90301233Y-56463466D01*
X90294902Y-56443660D01*
X90293745Y-56435577D01*
X90289936Y-56408981D01*
X90254121Y-56330209D01*
X90241096Y-56301562D01*
X90241095Y-56301560D01*
X90239252Y-56297507D01*
X90159318Y-56204739D01*
X90056560Y-56138135D01*
X89939238Y-56103048D01*
X89878012Y-56102674D01*
X89821238Y-56102327D01*
X89821237Y-56102327D01*
X89816785Y-56102300D01*
X89699044Y-56135951D01*
X89595480Y-56201295D01*
X89592537Y-56204627D01*
X89592535Y-56204629D01*
X89546405Y-56256861D01*
X89514418Y-56293079D01*
X89512526Y-56297109D01*
X89464268Y-56399895D01*
X89464267Y-56399898D01*
X89462376Y-56403926D01*
X89443536Y-56524924D01*
X89444113Y-56529337D01*
X89444113Y-56529338D01*
X89445012Y-56536210D01*
X89459414Y-56646345D01*
X89461207Y-56650420D01*
X89506030Y-56752286D01*
X89508733Y-56758430D01*
X89511597Y-56761837D01*
X89580169Y-56843414D01*
X89587527Y-56852168D01*
X89591232Y-56854634D01*
X89591234Y-56854636D01*
X89625097Y-56877177D01*
X89689464Y-56920023D01*
X89792124Y-56952096D01*
X89828848Y-56982748D01*
X89833142Y-57030390D01*
X89817680Y-57055946D01*
X89761482Y-57112144D01*
X89717288Y-57130450D01*
X87066712Y-57130450D01*
X87022518Y-57112144D01*
X85403063Y-55492689D01*
X85384757Y-55448495D01*
X85385525Y-55438727D01*
X85396094Y-55372000D01*
X85378626Y-55261714D01*
X85327933Y-55162223D01*
X85248977Y-55083267D01*
X85149486Y-55032574D01*
X85047370Y-55016400D01*
X87831906Y-55016400D01*
X87849374Y-55126686D01*
X87900067Y-55226177D01*
X87979023Y-55305133D01*
X87983406Y-55307366D01*
X88015149Y-55323540D01*
X88046216Y-55359914D01*
X88048505Y-55389004D01*
X88035106Y-55473600D01*
X88052574Y-55583886D01*
X88103267Y-55683377D01*
X88182223Y-55762333D01*
X88281714Y-55813026D01*
X88392000Y-55830494D01*
X88502286Y-55813026D01*
X88601777Y-55762333D01*
X88680733Y-55683377D01*
X88731426Y-55583886D01*
X88748894Y-55473600D01*
X88744871Y-55448200D01*
X95451906Y-55448200D01*
X95469374Y-55558486D01*
X95520067Y-55657977D01*
X95599023Y-55736933D01*
X95698514Y-55787626D01*
X95808800Y-55805094D01*
X95919086Y-55787626D01*
X96018577Y-55736933D01*
X96053310Y-55702200D01*
X96391706Y-55702200D01*
X96409174Y-55812486D01*
X96459867Y-55911977D01*
X96538823Y-55990933D01*
X96638314Y-56041626D01*
X96748600Y-56059094D01*
X96858886Y-56041626D01*
X96958377Y-55990933D01*
X97037333Y-55911977D01*
X97088026Y-55812486D01*
X97105494Y-55702200D01*
X97088026Y-55591914D01*
X97037333Y-55492423D01*
X96958377Y-55413467D01*
X96858886Y-55362774D01*
X96748600Y-55345306D01*
X96638314Y-55362774D01*
X96538823Y-55413467D01*
X96459867Y-55492423D01*
X96409174Y-55591914D01*
X96391706Y-55702200D01*
X96053310Y-55702200D01*
X96097533Y-55657977D01*
X96148226Y-55558486D01*
X96165694Y-55448200D01*
X96148226Y-55337914D01*
X96097533Y-55238423D01*
X96018577Y-55159467D01*
X95919086Y-55108774D01*
X95808800Y-55091306D01*
X95698514Y-55108774D01*
X95599023Y-55159467D01*
X95520067Y-55238423D01*
X95469374Y-55337914D01*
X95451906Y-55448200D01*
X88744871Y-55448200D01*
X88731426Y-55363314D01*
X88680733Y-55263823D01*
X88601777Y-55184867D01*
X88571517Y-55169449D01*
X88565651Y-55166460D01*
X88534584Y-55130086D01*
X88532295Y-55100995D01*
X88543624Y-55029472D01*
X88545694Y-55016400D01*
X88533836Y-54941536D01*
X88545003Y-54895024D01*
X88585790Y-54870030D01*
X88605342Y-54870031D01*
X88664740Y-54879439D01*
X88775026Y-54861971D01*
X88874517Y-54811278D01*
X88953473Y-54732322D01*
X89004166Y-54632831D01*
X89021634Y-54522545D01*
X89004166Y-54412259D01*
X88953473Y-54312768D01*
X88874517Y-54233812D01*
X88775026Y-54183119D01*
X88664740Y-54165651D01*
X88659885Y-54166420D01*
X88659880Y-54166420D01*
X88656984Y-54166879D01*
X88655072Y-54166420D01*
X88654960Y-54166420D01*
X88654960Y-54166393D01*
X88610470Y-54155714D01*
X88585475Y-54114928D01*
X88585474Y-54095376D01*
X88596494Y-54025800D01*
X88580190Y-53922865D01*
X88591357Y-53876352D01*
X88615059Y-53859136D01*
X88614086Y-53857226D01*
X88627879Y-53850198D01*
X88713577Y-53806533D01*
X88792533Y-53727577D01*
X88843226Y-53628086D01*
X88860694Y-53517800D01*
X90321106Y-53517800D01*
X90338574Y-53628086D01*
X90389267Y-53727577D01*
X90468223Y-53806533D01*
X90567714Y-53857226D01*
X90678000Y-53874694D01*
X90769141Y-53860258D01*
X90815653Y-53871425D01*
X90840647Y-53912212D01*
X90837147Y-53944690D01*
X90806936Y-54022178D01*
X90806444Y-54025915D01*
X90787946Y-54166421D01*
X90787260Y-54171630D01*
X90803802Y-54321461D01*
X90855606Y-54463022D01*
X90869368Y-54483502D01*
X90935829Y-54582406D01*
X90939681Y-54588139D01*
X91051174Y-54689590D01*
X91054483Y-54691387D01*
X91054485Y-54691388D01*
X91180337Y-54759721D01*
X91180342Y-54759723D01*
X91183648Y-54761518D01*
X91187290Y-54762473D01*
X91187294Y-54762475D01*
X91260034Y-54781557D01*
X91329456Y-54799769D01*
X91413950Y-54801096D01*
X91476409Y-54802078D01*
X91476411Y-54802078D01*
X91480178Y-54802137D01*
X91627115Y-54768484D01*
X91630479Y-54766792D01*
X91630482Y-54766791D01*
X91707730Y-54727939D01*
X91761783Y-54700753D01*
X91764648Y-54698306D01*
X91764651Y-54698304D01*
X91808562Y-54660800D01*
X97026706Y-54660800D01*
X97044174Y-54771086D01*
X97094867Y-54870577D01*
X97173823Y-54949533D01*
X97273314Y-55000226D01*
X97383600Y-55017694D01*
X97493886Y-55000226D01*
X97593377Y-54949533D01*
X97672333Y-54870577D01*
X97723026Y-54771086D01*
X97740494Y-54660800D01*
X97723026Y-54550514D01*
X97672333Y-54451023D01*
X97593377Y-54372067D01*
X97493886Y-54321374D01*
X97383600Y-54303906D01*
X97273314Y-54321374D01*
X97173823Y-54372067D01*
X97094867Y-54451023D01*
X97044174Y-54550514D01*
X97026706Y-54660800D01*
X91808562Y-54660800D01*
X91849229Y-54626067D01*
X91876408Y-54602854D01*
X91878603Y-54599799D01*
X91878606Y-54599796D01*
X91962172Y-54483502D01*
X91962173Y-54483500D01*
X91964372Y-54480440D01*
X92020597Y-54340576D01*
X92035163Y-54238226D01*
X92041549Y-54193358D01*
X92041549Y-54193353D01*
X92041836Y-54191339D01*
X92041922Y-54183119D01*
X92041953Y-54180237D01*
X92041953Y-54180231D01*
X92041974Y-54178200D01*
X92041729Y-54176179D01*
X92041729Y-54176171D01*
X92024317Y-54032295D01*
X92023864Y-54028550D01*
X92021457Y-54022178D01*
X91971913Y-53891065D01*
X91970581Y-53887540D01*
X91885200Y-53763310D01*
X91772651Y-53663032D01*
X91765624Y-53659311D01*
X91706649Y-53628086D01*
X91639431Y-53592496D01*
X91493231Y-53555773D01*
X91489466Y-53555753D01*
X91489464Y-53555753D01*
X91415111Y-53555364D01*
X91342491Y-53554984D01*
X91338827Y-53555864D01*
X91338824Y-53555864D01*
X91272706Y-53571738D01*
X91195915Y-53590174D01*
X91192573Y-53591899D01*
X91192570Y-53591900D01*
X91170627Y-53603226D01*
X91131886Y-53623222D01*
X91117785Y-53630500D01*
X91070117Y-53634502D01*
X91033580Y-53603627D01*
X91027389Y-53565184D01*
X91034124Y-53522662D01*
X91034124Y-53522661D01*
X91034894Y-53517800D01*
X91017426Y-53407514D01*
X90966733Y-53308023D01*
X90897110Y-53238400D01*
X95629706Y-53238400D01*
X95647174Y-53348686D01*
X95697867Y-53448177D01*
X95776823Y-53527133D01*
X95876314Y-53577826D01*
X95916643Y-53584214D01*
X95957427Y-53609206D01*
X95968594Y-53655720D01*
X95957427Y-53682678D01*
X95955342Y-53685548D01*
X95951867Y-53689023D01*
X95949636Y-53693402D01*
X95949635Y-53693403D01*
X95940645Y-53711048D01*
X95901174Y-53788514D01*
X95883706Y-53898800D01*
X95901174Y-54009086D01*
X95951867Y-54108577D01*
X96030823Y-54187533D01*
X96130314Y-54238226D01*
X96240600Y-54255694D01*
X96350886Y-54238226D01*
X96450377Y-54187533D01*
X96529333Y-54108577D01*
X96580026Y-54009086D01*
X96597494Y-53898800D01*
X96580026Y-53788514D01*
X96529333Y-53689023D01*
X96450377Y-53610067D01*
X96368993Y-53568600D01*
X96823506Y-53568600D01*
X96840974Y-53678886D01*
X96891667Y-53778377D01*
X96970623Y-53857333D01*
X97070114Y-53908026D01*
X97180400Y-53925494D01*
X97290686Y-53908026D01*
X97390177Y-53857333D01*
X97393656Y-53853854D01*
X97397634Y-53850964D01*
X97399456Y-53853472D01*
X97434400Y-53838998D01*
X97478594Y-53857304D01*
X97554823Y-53933533D01*
X97654314Y-53984226D01*
X97764600Y-54001694D01*
X97874886Y-53984226D01*
X97974377Y-53933533D01*
X98053333Y-53854577D01*
X98062870Y-53835859D01*
X98099241Y-53804794D01*
X98146930Y-53808545D01*
X98162751Y-53820040D01*
X98227820Y-53885109D01*
X98327311Y-53935802D01*
X98437597Y-53953270D01*
X98547883Y-53935802D01*
X98647374Y-53885109D01*
X98655883Y-53876600D01*
X99058706Y-53876600D01*
X99076174Y-53986886D01*
X99126867Y-54086377D01*
X99205823Y-54165333D01*
X99305314Y-54216026D01*
X99415600Y-54233494D01*
X99525886Y-54216026D01*
X99625377Y-54165333D01*
X99704333Y-54086377D01*
X99755026Y-53986886D01*
X99772494Y-53876600D01*
X99755026Y-53766314D01*
X99704333Y-53666823D01*
X99625377Y-53587867D01*
X99525886Y-53537174D01*
X99415600Y-53519706D01*
X99305314Y-53537174D01*
X99205823Y-53587867D01*
X99126867Y-53666823D01*
X99076174Y-53766314D01*
X99058706Y-53876600D01*
X98655883Y-53876600D01*
X98726330Y-53806153D01*
X98777023Y-53706662D01*
X98794491Y-53596376D01*
X98777023Y-53486090D01*
X98726330Y-53386599D01*
X98647374Y-53307643D01*
X98547883Y-53256950D01*
X98437597Y-53239482D01*
X98327311Y-53256950D01*
X98227820Y-53307643D01*
X98148864Y-53386599D01*
X98139327Y-53405317D01*
X98102956Y-53436382D01*
X98055267Y-53432631D01*
X98039446Y-53421136D01*
X97974377Y-53356067D01*
X97874886Y-53305374D01*
X97764600Y-53287906D01*
X97654314Y-53305374D01*
X97554823Y-53356067D01*
X97551345Y-53359545D01*
X97547366Y-53362436D01*
X97545544Y-53359928D01*
X97510600Y-53374402D01*
X97466406Y-53356096D01*
X97390177Y-53279867D01*
X97290686Y-53229174D01*
X97180400Y-53211706D01*
X97070114Y-53229174D01*
X96970623Y-53279867D01*
X96891667Y-53358823D01*
X96840974Y-53458314D01*
X96823506Y-53568600D01*
X96368993Y-53568600D01*
X96350886Y-53559374D01*
X96310557Y-53552986D01*
X96269773Y-53527994D01*
X96258606Y-53481480D01*
X96269773Y-53454522D01*
X96271858Y-53451652D01*
X96275333Y-53448177D01*
X96277567Y-53443794D01*
X96323791Y-53353072D01*
X96326026Y-53348686D01*
X96343494Y-53238400D01*
X96326026Y-53128114D01*
X96275333Y-53028623D01*
X96196377Y-52949667D01*
X96096886Y-52898974D01*
X95986600Y-52881506D01*
X95876314Y-52898974D01*
X95776823Y-52949667D01*
X95697867Y-53028623D01*
X95647174Y-53128114D01*
X95629706Y-53238400D01*
X90897110Y-53238400D01*
X90887777Y-53229067D01*
X90788286Y-53178374D01*
X90678000Y-53160906D01*
X90567714Y-53178374D01*
X90468223Y-53229067D01*
X90389267Y-53308023D01*
X90338574Y-53407514D01*
X90321106Y-53517800D01*
X88860694Y-53517800D01*
X88843226Y-53407514D01*
X88792533Y-53308023D01*
X88713577Y-53229067D01*
X88614086Y-53178374D01*
X88503800Y-53160906D01*
X88393514Y-53178374D01*
X88294023Y-53229067D01*
X88215067Y-53308023D01*
X88164374Y-53407514D01*
X88146906Y-53517800D01*
X88163210Y-53620734D01*
X88152043Y-53667248D01*
X88128341Y-53684464D01*
X88129314Y-53686374D01*
X88029823Y-53737067D01*
X87950867Y-53816023D01*
X87900174Y-53915514D01*
X87882706Y-54025800D01*
X87900174Y-54136086D01*
X87950867Y-54235577D01*
X88029823Y-54314533D01*
X88129314Y-54365226D01*
X88239600Y-54382694D01*
X88244455Y-54381925D01*
X88244460Y-54381925D01*
X88247356Y-54381466D01*
X88249268Y-54381925D01*
X88249380Y-54381925D01*
X88249380Y-54381952D01*
X88293870Y-54392631D01*
X88318865Y-54433417D01*
X88318866Y-54452969D01*
X88307846Y-54522545D01*
X88319704Y-54597409D01*
X88308537Y-54643921D01*
X88267750Y-54668915D01*
X88248198Y-54668914D01*
X88188800Y-54659506D01*
X88078514Y-54676974D01*
X87979023Y-54727667D01*
X87900067Y-54806623D01*
X87849374Y-54906114D01*
X87831906Y-55016400D01*
X85047370Y-55016400D01*
X85039200Y-55015106D01*
X84928914Y-55032574D01*
X84829423Y-55083267D01*
X84750467Y-55162223D01*
X84699774Y-55261714D01*
X84682306Y-55372000D01*
X80150000Y-55372000D01*
X80150000Y-53136256D01*
X80168306Y-53092062D01*
X80212500Y-53073756D01*
X80256694Y-53092062D01*
X80261209Y-53097093D01*
X80308470Y-53155874D01*
X80312719Y-53160212D01*
X80463219Y-53286497D01*
X80468249Y-53289941D01*
X80640409Y-53384588D01*
X80646006Y-53386986D01*
X80833273Y-53446390D01*
X80839227Y-53447656D01*
X80992114Y-53464805D01*
X80995592Y-53465000D01*
X81210569Y-53465000D01*
X81219359Y-53461359D01*
X81223000Y-53452569D01*
X81223000Y-52698431D01*
X81731000Y-52698431D01*
X81731000Y-53452569D01*
X81734641Y-53461359D01*
X81743431Y-53465000D01*
X81951437Y-53465000D01*
X81954497Y-53464850D01*
X82100574Y-53450527D01*
X82106539Y-53449346D01*
X82294628Y-53392559D01*
X82300247Y-53390243D01*
X82473721Y-53298006D01*
X82478786Y-53294640D01*
X82631040Y-53170465D01*
X82635358Y-53166177D01*
X82760590Y-53014797D01*
X82763993Y-53009753D01*
X82857440Y-52836925D01*
X82859794Y-52831325D01*
X82901104Y-52697877D01*
X82900224Y-52688402D01*
X82897332Y-52686000D01*
X81743431Y-52686000D01*
X81734641Y-52689641D01*
X81731000Y-52698431D01*
X81223000Y-52698431D01*
X81223000Y-52272500D01*
X81241306Y-52228306D01*
X81285500Y-52210000D01*
X93712410Y-52210000D01*
X93756604Y-52228306D01*
G37*
%TD.AperFunction*%
%TD*%
M02*
