M48
; DRILL file {KiCad (5.99.0-11336-g5116fa6d12)} date Fri Jul 16 22:43:03 2021
; FORMAT={-:-/ absolute / metric / decimal}
; #@! TF.CreationDate,2021-07-16T22:43:03+02:00
; #@! TF.GenerationSoftware,Kicad,Pcbnew,(5.99.0-11336-g5116fa6d12)
; #@! TF.FileFunction,Plated,1,4,PTH
FMAT,2
METRIC
; #@! TA.AperFunction,Plated,PTH,ViaDrill
T1C0.200
; #@! TA.AperFunction,Plated,PTH,ViaDrill
T2C0.300
; #@! TA.AperFunction,Plated,PTH,ViaDrill
T3C0.400
; #@! TA.AperFunction,Plated,PTH,ComponentDrill
T4C0.450
%
G90
G05
T1
X85.014Y-52.883
X85.039Y-55.372
X85.039Y-56.007
X85.039Y-56.642
X85.039Y-57.302
X85.039Y-57.785
X85.522Y-57.302
X85.522Y-57.785
X85.522Y-58.268
X85.877Y-55.372
X86.004Y-57.785
X86.004Y-58.268
X88.189Y-55.016
X88.24Y-54.026
X88.392Y-55.474
X88.504Y-53.518
X88.665Y-54.523
X90.678Y-53.518
X91.427Y-58.369
X92.202Y-56.21
X92.837Y-53.061
X92.989Y-55.169
X94.082Y-52.462
X94.488Y-58.623
X95.225Y-55.499
X95.25Y-53.365
X95.733Y-56.871
X95.809Y-55.448
X95.987Y-53.238
X96.241Y-53.899
X96.495Y-58.445
X96.647Y-56.667
X96.749Y-55.702
X97.18Y-53.569
X97.384Y-54.661
X97.765Y-53.645
X97.968Y-58.801
X97.993Y-56.312
X98.438Y-53.596
X98.501Y-58.268
X98.976Y-58.833
X99.136Y-54.915
X99.314Y-57.277
X99.416Y-53.877
X99.568Y-58.826
X99.72Y-54.788
X99.822Y-57.76
X99.936Y-56.792
X100.0Y-53.797
X101.498Y-58.801
X102.413Y-54.254
X102.438Y-57.404
X102.489Y-55.626
X102.743Y-59.512
X102.946Y-56.693
X103.962Y-58.293
X103.962Y-58.801
X103.962Y-59.309
X104.216Y-55.448
X104.318Y-57.81
X104.826Y-57.81
X105.334Y-57.81
X105.461Y-52.781
X105.461Y-53.264
X105.842Y-57.81
X105.943Y-52.781
X105.943Y-53.264
X106.35Y-57.81
X106.426Y-52.781
X106.426Y-53.264
X106.858Y-57.81
X106.858Y-58.318
X106.858Y-58.826
X106.858Y-59.334
X106.909Y-52.781
X106.909Y-53.264
X107.366Y-57.81
X107.366Y-58.318
X107.366Y-58.826
X107.366Y-59.334
X107.798Y-52.527
X107.874Y-57.81
X107.874Y-58.318
X107.874Y-58.826
X107.874Y-59.334
X109.017Y-52.553
X109.017Y-53.061
X109.525Y-52.553
X109.525Y-53.061
X110.033Y-52.553
X110.033Y-53.061
X110.541Y-52.553
X110.541Y-53.061
X111.049Y-52.553
X111.049Y-53.061
X113.36Y-53.188
X115.24Y-53.264
X117.678Y-57.912
X117.907Y-52.857
X118.135Y-55.855
X118.186Y-57.912
X118.694Y-57.912
X119.202Y-57.912
X119.71Y-57.912
X120.218Y-57.912
X120.218Y-58.42
X120.218Y-58.928
X120.218Y-59.436
X120.726Y-57.912
X120.726Y-58.42
X120.726Y-58.928
X120.726Y-59.436
X121.234Y-57.912
X121.234Y-58.42
X121.234Y-58.928
X121.234Y-59.436
X121.463Y-52.857
X126.111Y-52.451
X130.708Y-59.182
X130.912Y-52.883
T2
X89.789Y-55.575
X89.875Y-56.53
X90.348Y-54.102
X91.421Y-57.353
T3
X83.693Y-52.735
X83.718Y-59.309
T4
X81.077Y-52.432G85X81.877Y-52.432
G05
X81.877Y-59.582G85X81.077Y-59.582
G05
T0
M30
